<?xml version="1.0" encoding="UTF-8"?>
<svg id="Layer_2" data-name="Layer 2" xmlns="http://www.w3.org/2000/svg" viewBox="0 0 1919.73 690.8">
  <defs>
    <style>
      .cls-1 {
        fill: #ea6c6b;
      }

      .cls-2 {
        fill: #fff;
      }

      .cls-3 {
        fill: #d3f0f8;
      }

      .cls-4 {
        fill: #81b8a6;
      }

      .cls-5 {
        fill: #697bac;
      }

      .cls-6 {
        fill: #4e847e;
      }

      .cls-7 {
        fill: #e9b89b;
      }

      .cls-8 {
        fill: #212859;
      }

      .cls-9 {
        fill: #ff8d3d;
      }

      .cls-10 {
        fill: #fdcc5e;
      }

      .cls-11 {
        fill: #9cc7db;
      }

      .cls-12 {
        fill: #e9957d;
      }

      .cls-13 {
        fill: #4a5e82;
      }

      .cls-14 {
        fill: none;
        stroke: #9cc7db;
        stroke-linecap: round;
        stroke-linejoin: round;
        stroke-width: 2px;
      }
    </style>
  </defs>
  <g id="Layer_1-2" data-name="Layer 1">
    <path class="cls-2" d="M1373.35,410.9c-355.33-20.58-480.08-190.02-840.09-165.71C173.26,269.51,0,479.2,0,479.2v211.6H1919.73V352.36s-182.62,79.61-546.38,58.54Z"/>
    <g>
      <path class="cls-10" d="M459.18,246.89h-120.38c-36.87,0-66.75,29.91-66.75,66.81v101.72c0,36.9,29.89,66.81,66.75,66.81h120.38c36.87,0,66.75-29.91,66.75-66.81v-101.72c0-36.9-29.89-66.81-66.75-66.81Z"/>
      <g>
        <path class="cls-5" d="M164.86,406.81c3.19,57.12,14.09,103.11,33.37,122.85,65.98,67.56,127.18-1.41,206.86,8.75,103.71,13.23,145.73,51.02,301.11-12.21,39.32-16,80.1-56.47,97.05-119.39H164.86Z"/>
        <path class="cls-13" d="M320.32,454.75c46.46,16.14,99.66,11.65,142.76-12.05l-17.07-35.88h-185.92c11.24,23.02,35.42,39.31,60.23,47.93Z"/>
      </g>
      <g>
        <polygon class="cls-13" points="613.35 487.08 522.15 520.34 421.38 443.45 520.9 427.46 613.35 487.08"/>
        <polygon class="cls-11" points="615.99 484.55 524.79 517.82 424.02 440.92 523.54 424.93 615.99 484.55"/>
        <polygon class="cls-3" points="616.03 481.5 524.83 514.77 424.06 437.87 523.58 421.88 616.03 481.5"/>
        <polygon class="cls-2" points="619.93 480.35 528.73 513.61 427.96 436.71 527.48 420.73 619.93 480.35"/>
        <line class="cls-14" x1="589.71" y1="473.35" x2="530.86" y2="491.61"/>
        <line class="cls-14" x1="572.61" y1="463.99" x2="513.76" y2="482.26"/>
        <line class="cls-14" x1="558.81" y1="454.98" x2="499.96" y2="473.24"/>
        <line class="cls-14" x1="543.57" y1="447.23" x2="484.72" y2="465.49"/>
        <line class="cls-14" x1="529.17" y1="439.2" x2="504" y2="445.43"/>
      </g>
      <g>
        <path class="cls-7" d="M290.45,386.06c2.19-14.56,3.99-23.54,3.99-23.54l46.05,6.58s10.77,6.28,8.97,6.88c-.3,6.58-2.39,23.94-2.39,23.94l-56.62-13.87Z"/>
        <path class="cls-12" d="M340.49,369.1l-46.05-6.58s-1.39,6.95-3.21,18.53c18.02,6.26,37.06,9.57,56.13,9.73,.25,0,.51,0,.76,0,.57-5.24,1.19-11.43,1.35-14.8,1.79-.6-8.97-6.88-8.97-6.88Z"/>
        <polygon class="cls-7" points="520.51 406.81 570.45 406.81 561.48 373.29 516.02 380.17 520.51 406.81"/>
        <path class="cls-12" d="M519.03,398.04c15.2-4.68,30.07-10.4,44.49-17.11l-2.05-7.64-45.45,6.88,3.01,17.87Z"/>
        <path class="cls-8" d="M419.52,63.13c-64.65-2.51-81.42,40.66-84.16,70.32-2.74,29.66-32.02,67.79-11.86,90.9,20.16,23.11,63.3,27.26,90.4,25.01,27.1-2.26,69.29-14.67,82.2-29.88,12.9-15.21-7.52-41.63-8.75-71.44-1.23-29.81-14.27-82.82-67.82-84.9Z"/>
        <path class="cls-1" d="M364.12,243.7c-37.38,14.66-46.95,24.24-58.91,39.8-11.96,15.56-17.53,95.84-17.53,95.84,0,0,49.22,5.91,59.99,6.51l-1.5,20.95h174.34l-.6-19.15,48.44-9.58s-27.51-82.6-35.88-101.75c-8.37-19.15-55.62-32.92-71.47-39.2l-48.74,5.69-48.14,.9Z"/>
        <path class="cls-7" d="M387.44,208.69s.9,5.09-1.5,15.86c-2.39,10.77-21.83,19.15-21.83,19.15,0,0,37.38,27.53,59.21,36.51,0,0,30.8-26.34,37.68-43.09,0,0-11.36-4.49-17.34-8.98-5.98-4.49-5.68-20.35-5.68-20.35l-50.54,.9Z"/>
        <path class="cls-8" d="M502.88,433.74l1.33,11.37-9.33-6.75-45.69-79.05c-1.28-2.21-.52-5.04,1.69-6.31h0c2.21-1.28,5.03-.52,6.3,1.69l45.7,79.05Z"/>
        <path class="cls-7" d="M426.81,399.23c9.17-.4,17.54-8.38,24.32-9.58,6.78-1.2,19.14,3.99,27.51,4.79,8.37,.8,14.97,2,12.76,10.37,0,0,3.59,5.59-1.99,11.17,0,0,3.59,2.39-4.78,7.18,0,0,1.99,3.59-5.18,6.38-7.18,2.79-43.46,4.79-54.22,6.78-10.77,2-57.41,12.77-89.71,3.99-32.3-8.78-50.24-23.14-45.05-54.27,0,0,127.19,13.57,136.36,13.17Z"/>
        <path class="cls-12" d="M438.59,216.41l-6.68-8.51-44.47,.79s.9,5.09-1.5,15.86c-.55,2.47-1.99,4.8-3.89,6.95,1.19,.66,2.4,1.28,3.63,1.84,18.35,8.36,41.05,6.03,57.47-5.61-2.62-2.39-3.92-7.08-4.56-11.31Z"/>
        <path class="cls-7" d="M467.7,148.36c4.3,25.58-3.1,81.58-48.79,81.4-49.3-.19-55.12-53.07-55.12-53.07,0,0-13.2-.54-13.08-12.79,.12-12.25,13.35-12.04,13.35-12.04,0,0,49.98-10.7,61.3-40.49,0,0,23.47,33.29,42.34,36.99Z"/>
        <path class="cls-12" d="M362.52,162.27c-.56-.67-1.24-1.23-1.95-1.74-.32-.23-.68-.41-1.04-.58-.42-.21-.86-.46-1.33-.53-.47-.07-.91,0-1.22,.41-.26,.35-.36,.9-.09,1.29,.42,.6,1.04,1.04,1.57,1.55,.46,.44,.93,.86,1.35,1.35-.52,.28-.99,.73-1.29,1.15-.5,.7-.8,1.68-.73,2.55,.17,1.95,1.98,3.86,4.07,3.25,1.8-.53,2.57-2.5,2.48-4.24-.08-1.67-.77-3.19-1.83-4.46Z"/>
        <path class="cls-12" d="M426.28,126.05s21.77,22.63,41.42,22.3c-18.87-3.71-42.34-36.99-42.34-36.99-11.32,29.79-61.3,40.49-61.3,40.49,28.15,.05,53.4-10.47,62.23-25.8Z"/>
        <path class="cls-12" d="M363.31,392.69c-3.71-1.11-7.7-1.31-11.53-1.76-3.99-.46-7.97-.93-11.96-1.44-3.87-.49-7.74-1-11.6-1.5-1.99-.26-3.97-.54-5.96-.79-2.05-.26-4.21-.68-6.28-.51-.67,.06-.74,.88-.15,1.13,1.83,.77,3.89,1.02,5.83,1.38,1.97,.36,3.95,.67,5.93,.99,3.96,.64,7.93,1.23,11.91,1.77,3.76,.51,7.53,1,11.29,1.46,4.04,.5,8.24,1.24,12.31,.9,.91-.07,1.15-1.35,.22-1.63Z"/>
        <path class="cls-12" d="M492.19,404.88c.29-.11,.53-.33,.62-.72,.37-1.52,.52-3.17-.02-4.67-.47-1.29-1.37-2.29-2.47-3.08-1.11-.79-2.39-1.3-3.71-1.61-.74-.17-1.5-.28-2.26-.37-.7-.08-1.5-.1-2.16,.17-.16,.07-.2,.27-.05,.37,1.06,.73,2.55,.75,3.76,1.09,1.09,.31,2.2,.77,3.08,1.51,.76,.63,1.35,1.43,1.7,2.35,.36,.95,.31,1.97,.11,2.95-.01,0-.02-.02-.04-.02-.93-.37-2.06-.16-3.04-.14-.93,.02-1.86,.02-2.79,.02-2.09-.01-4.19-.07-6.28-.17-2.01-.1-4.02-.26-6.03-.39-1.83-.11-4.07-.64-5.84-.03-.23,.08-.25,.35-.06,.49,1.56,1.14,4.01,1.23,5.87,1.51,2.01,.3,4.03,.47,6.06,.61,2.09,.14,4.18,.21,6.28,.23,1.09,0,2.17,0,3.26-.02,.53-.01,1.05,0,1.55-.06,.05,.12,.12,.23,.23,.33,1.55,1.25,1.67,3.69,1.43,5.52-.13,1.01-.46,2.04-1.15,2.81-.13,.15-.27,.27-.4,.4-.79-.44-1.71-.27-2.6-.25-1.11,.02-2.22,.04-3.34,.05-2.22,0-4.45-.03-6.68-.07-2.22-.04-4.44-.13-6.67-.17-1.11-.02-2.22-.04-3.33-.03-.69,0-1.45-.09-1.92,.49,0,.01-.01,.02,0,.04,.35,.72,1.25,.76,1.97,.9,1.08,.21,2.19,.39,3.28,.52,2.21,.28,4.44,.44,6.67,.53,2.23,.09,4.45,.1,6.68,.03,1.11-.03,2.23-.07,3.34-.13,.43-.02,.85-.02,1.26-.05,.03,.57,.09,1.13-.07,1.72-.26,.91-.82,1.71-1.61,2.23-1.77,1.16-4.39,1.16-6.42,1.43-2.37,.32-4.73,.71-7.1,1.04-1.26,.18-2.52,.34-3.77,.52-1.11,.16-2.36,.23-3.35,.81-.35,.2-.25,.69,.11,.82,1.27,.45,2.83,.17,4.15,.07,1.49-.11,2.98-.25,4.47-.38,2.94-.27,5.86-.61,8.78-1.04,.03,0,.06,0,.08-.01-.14,.77-.25,1.5-.64,2.22-.43,.78-1.03,1.44-1.73,1.98-1.34,1.02-2.97,1.6-4.58,2.03-1.73,.46-3.5,.74-5.27,1.01-1.13,.17-2.26,.34-3.39,.52-1.01,.15-2.1,.24-2.98,.81-.15,.1-.13,.33,.05,.39,1.05,.32,2.18,.07,3.24-.08,1.26-.17,2.53-.34,3.79-.51,2.09-.28,4.2-.44,6.24-.97,1.77-.46,3.48-1.22,4.86-2.44,1.45-1.28,2.78-3.33,2.38-5.34,0,0,0,0,0,0,1.5-.39,2.88-1.06,3.85-2.38,.88-1.2,1.48-3.13,1.07-4.68,.44-.18,.86-.42,1.22-.75,1.07-1.03,1.56-2.48,1.69-3.94,.19-2.02-.13-4.33-1.35-6Z"/>
        <path class="cls-12" d="M494.88,438.36l9.33,6.75-1.33-11.37c-6.43-1.31-8,4.62-8,4.62Z"/>
        <path class="cls-8" d="M504.21,445.11l-.49-4.15c-1.16,.28-2.18,.86-3.03,1.61l3.52,2.54Z"/>
        <path class="cls-10" d="M460.96,361.22c-2.16,.52-4.23,1.49-5.92,2.8-.74,.57-1.41,1.21-2.04,1.9l1.93,3.34c.65-.77,1.4-1.48,2.14-2.01,1.23-.87,2.55-1.57,4-1.99,.69-.2,1.35-.3,2-.36l-2.13-3.68Z"/>
        <path class="cls-8" d="M405.95,150.34c-2.33-1.14-4.97-1.5-7.49-.83-1.41,.38-2.65,1.05-3.78,1.97-.54,.44-1.07,.93-1.43,1.53-.39,.65-.83,1.58-.54,2.32,.23,.58,.66,.97,1.31,1,.68,.02,1.15-.38,1.68-.73,.3-.2,.58-.42,.86-.65,0,0,.08-.06,.12-.1,.07-.04,.27-.18,.3-.2,.43-.28,.89-.51,1.36-.73-.05,.03,.47-.18,.53-.2,.26-.08,.52-.16,.78-.21,.13-.03,.26-.05,.39-.08,.03,0,.05,0,.06,0,.28-.02,.55-.04,.83-.04,.24,0,.49,.02,.73,.04,.03,.01,.47,.09,.56,.11,.27,.06,.54,.14,.8,.23,.1,.03,.2,.07,.31,.11,.05,.02,.12,.05,.15,.07,.53,.27,1.03,.58,1.54,.87,.62,.34,1.21,.69,1.94,.67,1.02-.03,1.75-.8,1.74-1.82,0-1.53-1.52-2.7-2.76-3.31Z"/>
        <path class="cls-8" d="M448.63,150.34c-2.33-1.14-4.97-1.5-7.49-.83-1.41,.38-2.65,1.05-3.78,1.97-.54,.44-1.07,.93-1.43,1.53-.39,.65-.83,1.58-.54,2.32,.23,.58,.66,.97,1.31,1,.68,.02,1.15-.38,1.68-.73,.3-.2,.58-.42,.86-.65,0,0,.08-.06,.12-.1,.07-.04,.27-.18,.3-.2,.43-.28,.89-.51,1.36-.73-.05,.03,.47-.18,.53-.2,.26-.08,.52-.16,.78-.21,.13-.03,.26-.05,.39-.08,.03,0,.05,0,.06,0,.28-.02,.55-.04,.83-.04,.24,0,.49,.02,.73,.04,.03,.01,.47,.09,.56,.11,.27,.06,.54,.14,.8,.23,.1,.03,.2,.07,.31,.11,.05,.02,.12,.05,.15,.07,.53,.27,1.03,.58,1.54,.87,.62,.34,1.21,.69,1.94,.67,1.02-.03,1.75-.8,1.74-1.82,0-1.53-1.52-2.7-2.76-3.31Z"/>
        <path class="cls-8" d="M406.18,171.63c.02-.47,.02-.93-.04-1.41-.14-1.22-.35-2.28-.97-3.37-.67-1.18-1.78-2.14-3.1-2.5-2.58-.7-5.42,.78-6.5,3.19-.43,.97-.69,1.85-.85,2.88-.48,2.99-.27,6.47,2.41,8.41,2.7,1.95,6.81,1.23,8.25-1.93,.54-1.19,.77-2.31,.85-3.62,.03-.55,0-1.1-.05-1.65Z"/>
        <path class="cls-8" d="M447.1,171.63c.02-.47,.02-.93-.04-1.41-.14-1.22-.35-2.28-.97-3.37-.67-1.18-1.78-2.14-3.1-2.5-2.58-.7-5.42,.78-6.5,3.19-.43,.97-.69,1.85-.85,2.88-.48,2.99-.27,6.47,2.41,8.41,2.7,1.95,6.81,1.23,8.25-1.93,.54-1.19,.77-2.31,.85-3.62,.03-.55,0-1.1-.05-1.65Z"/>
        <path class="cls-12" d="M428.52,184.68c-.66-.66-1.63-.64-2.47-.4-.57,.16-1.09,.59-1.62,.86-.21,.11-1.02,.73-1.24,.66,0,0,.54-.2,.12-.05-.1,.04-.2,.07-.3,.11-.2,.07-.4,.13-.6,.18-.23,.06-.46,.11-.69,.15,0,0-.03,0-.04,0-.08,0-.22,.03-.26,.03-.53,.04-1.04,.03-1.57,0-.08,0-.12,0-.14,0-.21-.03-.41-.06-.63-.07-.09,0-.49-.05-.54-.05-.97-.18-1.85-.63-2.84-.56-.33,.02-.6,.26-.6,.6-.02,1.06,.65,1.78,1.44,2.41,.84,.67,1.74,1.24,2.79,1.51,2.01,.51,4.26,.48,6.22-.22,1.37-.49,2.86-1.41,3.36-2.85,.27-.78,.2-1.7-.41-2.31Z"/>
        <path class="cls-2" d="M406.88,165.21c-.14-.5-.39-.94-.76-1.31-.2-.15-.4-.31-.6-.46-.46-.27-.96-.4-1.49-.4-.41-.02-.79,.07-1.14,.26-.37,.12-.68,.32-.95,.61-.29,.27-.49,.59-.61,.95-.19,.35-.27,.73-.25,1.14,.04,.26,.07,.52,.11,.79,.14,.5,.39,.94,.76,1.31,.2,.15,.4,.31,.6,.46,.46,.27,.96,.4,1.49,.4,.41,.02,.79-.07,1.14-.26,.37-.12,.68-.32,.95-.61,.29-.27,.49-.59,.61-.95,.19-.35,.27-.73,.25-1.14-.04-.26-.07-.52-.11-.79Z"/>
        <path class="cls-2" d="M448.32,165.21c-.14-.5-.39-.94-.76-1.31-.2-.15-.4-.31-.6-.46-.46-.27-.96-.4-1.49-.4-.41-.02-.79,.07-1.14,.26-.37,.12-.68,.32-.95,.61-.29,.27-.49,.59-.61,.95-.19,.35-.27,.73-.25,1.14,.04,.26,.07,.52,.11,.79,.14,.5,.39,.94,.76,1.31,.2,.15,.4,.31,.6,.46,.46,.27,.96,.4,1.49,.4,.41,.02,.79-.07,1.14-.26,.37-.12,.68-.32,.95-.61,.29-.27,.49-.59,.61-.95,.19-.35,.27-.73,.25-1.14-.04-.26-.07-.52-.11-.79Z"/>
        <path class="cls-1" d="M395.4,184.21c0,3-4.1,5.43-9.16,5.43s-9.16-2.43-9.16-5.43,4.1-5.43,9.16-5.43,9.16,2.43,9.16,5.43Z"/>
        <ellipse class="cls-1" cx="454.88" cy="184.21" rx="9.16" ry="5.43"/>
        <path class="cls-8" d="M415.09,290.11c2.42,1.04,4.86,2.04,7.31,3.03,2.19,.88,4.58,2.46,6.7,.68,2.24-1.88,4.21-4.19,6.24-6.29,2.09-2.16,4.17-4.32,6.21-6.52,4.09-4.4,8.13-8.85,12.14-13.32,7.41-8.25,14.73-16.65,21.66-25.32-1.08-.39-2.14-.77-3.16-1.14-5.66,6.74-11.31,13.49-17.14,20.1-7.6,8.6-15.46,16.96-23.44,25.21-.9,.92-1.8,1.84-2.69,2.77-.49,.5-.99,1.22-1.55,1.63-.74,.54-1.17,.32-1.99,.02-2.44-.89-4.85-1.85-7.26-2.85-4.87-2.01-9.67-4.18-14.4-6.5-9.16-4.49-18.05-9.56-26.54-15.22-8.32-5.54-16.19-11.71-23.66-18.33-.67,.29-1.33,.57-1.97,.85,14.2,14.05,31.12,25.34,48.87,34.35,4.81,2.44,9.71,4.72,14.66,6.86Z"/>
        <path class="cls-8" d="M351.14,315.07c-.08-.22-.41-.25-.47,0-.62,2.57-.84,5.21-1.35,7.8-.26-.28-.52-.56-.8-.82-.39-.38-.79-.74-1.22-1.07-.49-.38-.96-.76-1.57-.92-.42-.11-.72,.33-.54,.7,.23,.47,.59,.82,.94,1.19,.34,.36,.67,.73,1.01,1.09,.33,.37,.65,.75,.96,1.13,.04,.05,.07,.09,.11,.14,0,0,.05,.07,.07,.09,.02,.03,.06,.07,.06,.08,.04,.05,.07,.1,.11,.14,.11,.15,.23,.31,.34,.47-.66,2.55-1.4,5.08-2.2,7.59-1.86,5.83-3.58,11.74-3.84,17.89-.27,6.37,.77,12.71,1.77,18.97,.51,3.19,1,6.37,1.36,9.58,.37,3.32,.25,6.65,.55,9.97,.11,1.25,2.08,1.75,2.36,.32,.61-3.1,.27-6.54-.03-9.66-.29-3.04-.79-6.06-1.29-9.07-1.09-6.55-2.31-13.13-2.11-19.79,.19-6.37,2.15-12.33,3.87-18.39,.61-2.14,1.2-4.29,1.64-6.46,.18-.22,.24-.53,.17-.83,0,0,0-.01,0-.02,.1-.54,.2-1.07,.28-1.61,.4-2.79,.76-5.78-.18-8.49Z"/>
        <path class="cls-8" d="M522.59,367.14c-.61-6.67-3.52-12.55-5.94-18.69-2.5-6.34-4.22-13.04-4.91-19.83-.37-3.65-.48-7.32-.28-10.99,.06-1.18,.16-2.35,.27-3.53,.17,.02,.34,0,.49-.11,.25-.19,.36-.34,.48-.63,.02-.04,.04-.08,.05-.12-.02,.1-.06,.13,0,.01,.08-.18,.17-.35,.26-.52,.19-.36,.38-.72,.61-1.06,.05-.08,.11-.16,.17-.24,.01-.02,.05-.06,.07-.09,0,0,0,0,.01-.01,.09-.12,.19-.23,.28-.35,.03-.04,.06-.08,.09-.13,0,0,0,0,0,0,.09-.2,.33-.36,.44-.55,.07-.19,.09-.24,.06-.14-.02,.04-.01,.05,0,.01,.03-.02,.07-.09,.09-.12,.08-.11,.1-.23,.1-.36,.05-.15,.07-.31-.04-.44-.1-.13-.25-.16-.4-.15-.12-.03-.25-.05-.39,0-.08,.03-.16,.07-.24,.1-.02,0-.04,.02-.06,.03-.05,.02-.04,.02,.03-.02-.21,0-.48,.27-.64,.39-.38,.29-.69,.61-.98,.99-.02,.03-.04,.05-.06,.08,.23-1.49,.48-2.99,.39-4.49-.02-.32-.44-.46-.61-.17-1.6,2.63-1.96,6.18-2.33,9.18-.42,3.33-.53,6.71-.42,10.06,.21,6.72,1.37,13.46,3.45,19.86,2.12,6.54,5.61,12.67,6.82,19.48,1.18,6.6,.25,13.36-.53,19.94-.86,7.26-1.49,14.75,.52,21.88,.4,1.42,2.6,.82,2.21-.61-3.5-12.78,2.14-25.76,.96-38.68Z"/>
        <path class="cls-8" d="M564.19,365.67c-6.8,1.7-13.61,3.34-20.45,4.9-4.42,1.01-8.85,2-13.29,2.94-2.27,.48-4.56,.9-6.81,1.46-.32,.08-3.26,.57-2.58,1.63,.74,1.17,2.6,.49,3.73,.33,2.3-.33,4.58-.8,6.87-1.23,4.46-.84,8.92-1.71,13.36-2.65,6.73-1.42,13.43-2.98,20.11-4.64-.29-.87-.6-1.78-.92-2.74Z"/>
        <path class="cls-8" d="M290.52,369.34c2.58,.47,5.17,.88,7.76,1.26,5.09,.76,10.19,1.38,15.31,1.88,10.39,1.03,21.01,2.21,31.46,1.92,1.92-.05,1.87-2.96,0-3.13-10.34-.93-20.75-1.05-31.1-1.96-5.11-.45-10.22-.95-15.32-1.45-2.61-.26-5.21-.54-7.82-.79-.71-.07-1.4-.14-2.1-.21-.07,.73-.13,1.43-.19,2.1,.66,.12,1.33,.24,2,.37Z"/>
        <path class="cls-8" d="M408.87,197.96c.72-1.56,24.55-2.48,26.85-.14,2.3,2.34-3.75,13.17-13.88,12.44-10.52-.75-14.38-9.27-12.97-12.3Z"/>
        <path class="cls-1" d="M432.53,206.16c-6.19-3.49-14.23-3.39-20.39,.12,2.17,2.03,5.36,3.67,9.7,3.98,4.49,.32,8.17-1.63,10.69-4.1Z"/>
        <path class="cls-2" d="M408.87,197.96c-.19,.4-.27,.91-.27,1.47,1.47,1.19,3.89,1.37,5.93,1.3,7.2-.23,14.4-.46,21.61-.7,.16-.96,.04-1.76-.41-2.22-2.3-2.33-26.13-1.42-26.85,.14Z"/>
      </g>
      <g>
        <ellipse class="cls-13" cx="268.61" cy="480.98" rx="68.35" ry="18.7"/>
        <ellipse class="cls-3" cx="271.48" cy="476.52" rx="63.75" ry="15.84"/>
        <path class="cls-11" d="M311.11,476.52c0,3.89-17.74,7.05-39.62,7.05s-39.62-3.15-39.62-7.05,17.74-7.05,39.62-7.05,39.62,3.15,39.62,7.05Z"/>
        <path class="cls-2" d="M234.14,433.64s-15.21-3.81-17.08,10.15c-1.87,13.96,7.15,28.44,29.27,23.67l-2.72-8s-16.34,5.46-18.98-8.68c-2.63-14.14,10.22-10.41,10.22-10.41l-.71-6.73Z"/>
        <g>
          <path class="cls-8" d="M228.92,440.23c2.84-.75,5.93,.14,5.93,.14l-.71-6.73s-1.34-.33-3.27-.44l-1.95,7.03Z"/>
          <path class="cls-8" d="M246.32,467.47l-2.72-8s-3.45,1.15-7.43,1.02l1.42,7.89c2.65,.05,5.55-.22,8.74-.91Z"/>
        </g>
        <path class="cls-2" d="M231.86,423.07s-6.77,56.92,39.62,56.92,39.62-56.92,39.62-56.92h-79.25Z"/>
        <ellipse class="cls-3" cx="271.48" cy="423.07" rx="39.62" ry="10.52"/>
        <ellipse class="cls-8" cx="271.48" cy="423.07" rx="35.31" ry="7.82"/>
        <path class="cls-10" d="M239.16,426.22c5.47,2.75,17.88,4.67,32.32,4.67s26.85-1.92,32.32-4.67c-5.47-2.75-17.88-4.67-32.32-4.67s-26.85,1.92-32.32,4.67Z"/>
        <path class="cls-9" d="M239.16,426.22c5.47,2.75,17.88,4.67,32.32,4.67s26.85-1.92,32.32-4.67c-.66-.33-1.43-.65-2.29-.96-4.64,1.95-9.65,3.08-14.67,3.6-7.34,.75-14.75,.3-22.11-.25-2.52-.19-5.2-.44-7.22-1.97-1.29-.98-2.12-2.67-2.08-4.24-7.21,.82-13,2.16-16.28,3.81Z"/>
      </g>
      <g>
        <g>
          <ellipse class="cls-10" cx="575.17" cy="56.77" rx="79.46" ry="56.77"/>
          <path class="cls-10" d="M508.8,73.64l-17.88,26.07c-1.14,1.66,.23,3.88,2.22,3.61l34.7-4.66-19.05-25.02Z"/>
        </g>
        <path class="cls-2" d="M544.31,70.41c0,4.77-3.87,8.64-8.64,8.64s-8.64-3.87-8.64-8.64,3.87-8.64,8.64-8.64,8.64,3.87,8.64,8.64Z"/>
        <ellipse class="cls-2" cx="575.17" cy="70.41" rx="8.64" ry="8.64"/>
        <ellipse class="cls-2" cx="614.67" cy="70.41" rx="8.64" ry="8.64"/>
      </g>
      <g>
        <ellipse class="cls-13" cx="680.12" cy="444.77" rx="41.32" ry="12.61"/>
        <path class="cls-4" d="M646.81,321.68c-1.97-7.7-3.77-15.69-2.46-23.53,.36-2.14,.99-4.32,2.39-5.97,1.4-1.66,3.74-2.67,5.8-2,2.5,.81,3.7,3.59,4.57,6.08,6.46,18.56,11.3,37.69,14.44,57.09,.83,5.11,1.79,12.69-2.16,16.87-4.71,4.98-8.01,1.08-9.47-3.7-4.54-14.86-9.25-29.75-13.11-44.84Z"/>
        <path class="cls-4" d="M659.56,245.05c.13-3.59,.32-7.27,1.77-10.56,1.44-3.29,4.41-6.15,7.99-6.42,3.68-.28,7.12,2.23,9.02,5.39,1.9,3.16,2.56,6.9,3.17,10.54,5.13,30.92,8.63,62.5,4.57,93.58-.9,6.92-2.18,13.79-3.79,20.58-.63,2.65-1.33,5.34-2.89,7.57-1.56,2.23-4.16,3.92-6.86,3.65-7.7-.75-6.4-17.59-7-22.69-1.33-11.26-2.57-22.53-3.59-33.82-2.03-22.54-3.19-45.2-2.39-67.83Z"/>
        <path class="cls-4" d="M683.15,378.38c-6.24-13.45-6.5-28.86-5.54-43.65,1.23-18.76,4.27-37.41,9.06-55.59,2.87-10.88,6.54-21.91,13.89-30.42,1.5-1.73,3.54-3.48,5.79-3.04,2.36,.46,3.59,3.04,4.31,5.34,5.63,17.88,2.92,37.23-.64,55.63-4.02,20.76-9.06,41.34-15.56,61.46-1.03,3.2-2.38,6.72-5.42,8.16-3.04,1.44-7.67-1.39-6.39-4.5-.32,1.92-.35,4.86,.5,6.62Z"/>
        <path class="cls-4" d="M715.25,293.4c2.15-3.01,4.53-6,7.76-7.79,1.34-.74,2.91-1.26,4.39-.9,2.02,.5,3.35,2.56,3.63,4.63,.29,2.06-.25,4.14-.8,6.15-7.54,27.76-17.14,54.94-28.29,81.45-1.02,2.42-3.84,7.87-7.45,5.7-2.37-1.42-1.27-6.07-1.35-8.34-.31-9.66-.48-18.99,.99-28.6,2.87-18.75,10.07-36.86,21.1-52.31Z"/>
        <path class="cls-6" d="M660.37,343.2c-1.28-5-2.45-10.2-1.6-15.29,.23-1.39,.64-2.81,1.55-3.88s2.43-1.74,3.77-1.3c1.63,.53,2.41,2.34,2.97,3.95,4.2,12.06,7.34,24.49,9.38,37.1,.54,3.32,1.16,8.25-1.41,10.96-3.06,3.23-5.21,.7-6.15-2.41-2.95-9.66-6.01-19.33-8.52-29.14Z"/>
        <path class="cls-6" d="M668.66,293.4c.08-2.33,.21-4.73,1.15-6.87,.94-2.14,2.87-4,5.19-4.17,2.39-.18,4.63,1.45,5.86,3.5,1.24,2.06,1.67,4.48,2.06,6.85,3.33,20.1,5.61,40.62,2.97,60.82-.59,4.5-1.41,8.96-2.46,13.38-.41,1.72-.87,3.47-1.88,4.92-1.01,1.45-2.7,2.55-4.46,2.37-5-.49-4.16-11.43-4.55-14.75-.86-7.32-1.67-14.64-2.33-21.98-1.32-14.65-2.08-29.37-1.56-44.08Z"/>
        <path class="cls-6" d="M683.99,380.05c-4.05-8.74-4.23-18.75-3.6-28.37,.8-12.2,2.77-24.31,5.89-36.13,1.86-7.07,4.25-14.24,9.03-19.77,.97-1.13,2.3-2.26,3.76-1.98,1.53,.3,2.33,1.98,2.8,3.47,3.66,11.62,1.9,24.19-.42,36.15-2.61,13.49-5.89,26.87-10.11,39.94-.67,2.08-1.55,4.37-3.52,5.3-1.97,.93-4.99-.9-4.15-2.92-.21,1.25-.23,3.16,.32,4.3Z"/>
        <path class="cls-6" d="M704.85,324.82c1.4-1.95,2.94-3.9,5.04-5.06,.87-.48,1.89-.82,2.85-.58,1.31,.33,2.18,1.67,2.36,3.01s-.16,2.69-.52,4c-4.9,18.04-11.14,35.7-18.38,52.93-.66,1.58-2.49,5.11-4.84,3.71-1.54-.92-.83-3.94-.88-5.42-.2-6.28-.31-12.34,.64-18.58,1.87-12.19,6.55-23.96,13.71-34Z"/>
        <path class="cls-9" d="M717.17,445.19s-10.93,5-33.01,5-33.01-5-33.01-5v-89.12h66.03v89.12Z"/>
        <path class="cls-8" d="M717.17,372.92c-.61,.44-1.23,.88-1.89,1.24-2.03,1.11-4.47,1.32-6.66,.56-3.71-1.28-5.87-5.07-9.46-6.63-3.13-1.36-6.28-.47-8.96,1.4-2.48,1.73-4.49,4.32-7.27,5.6-3.02,1.4-5.58-.52-7.76-2.51-2.21-2.01-4.42-4.45-7.46-5.11-4.28-.93-6.81,2.31-9.93,4.54-2.48,1.77-4.7,1.09-6.64-.41v3.53c.59,.34,1.2,.63,1.86,.82,3.64,1.03,6.4-1.13,9.03-3.33,1.23-1.03,2.6-2.16,4.3-2.07,1.49,.08,2.78,1.04,3.88,1.97,2.32,1.94,4.27,4.37,7.05,5.69,6.55,3.11,10.61-3.24,15.51-6.23,3.44-2.1,6.13-.22,8.79,2.19,2.95,2.67,5.98,4.82,10.15,4.73,1.96-.05,3.76-.58,5.45-1.48v-4.47Z"/>
        <path class="cls-2" d="M667.57,378.09c-.12-.32-.24-.64-.52-.87-.01-.01-.03-.02-.04-.03l-.08-.07c-.17-.19-.38-.32-.61-.39-.23-.12-.47-.17-.73-.16-.26,0-.51,.04-.73,.16-.24,.08-.44,.21-.61,.39-.1,.13-.2,.26-.3,.38-.17,.3-.26,.62-.26,.96,.02,.17,.05,.34,.07,.5,.09,.32,.25,.6,.49,.84,.02,.03,.04,.05,.07,.08l.03,.04c.23,.28,.55,.4,.87,.52,.34,.09,.68,.09,1.02,0,.32-.09,.61-.26,.84-.49,.24-.24,.4-.52,.49-.84,.09-.34,.09-.68,0-1.02Z"/>
        <path class="cls-2" d="M656.57,367.7c-.12-.31-.24-.63-.51-.85-.01-.01-.03-.02-.04-.03l-.08-.06c-.17-.18-.37-.31-.6-.38-.22-.12-.46-.17-.71-.16-.26,0-.49,.04-.71,.16-.23,.07-.43,.2-.6,.38-.1,.12-.19,.25-.29,.38-.17,.29-.25,.6-.25,.94,.02,.16,.04,.33,.07,.49,.09,.31,.25,.59,.48,.82,.02,.03,.04,.05,.06,.08l.03,.04c.22,.27,.54,.39,.85,.51,.33,.09,.66,.09,.99,0,.32-.09,.59-.25,.82-.48,.23-.23,.39-.51,.48-.83,.09-.33,.09-.66,0-.99Z"/>
        <path class="cls-2" d="M694.83,378.09c-.12-.32-.24-.64-.52-.87-.01-.01-.03-.02-.04-.03l-.08-.07c-.17-.19-.38-.32-.61-.39-.23-.12-.47-.17-.73-.16-.26,0-.51,.04-.73,.16-.24,.08-.44,.21-.61,.39-.1,.13-.2,.26-.3,.38-.17,.3-.26,.62-.26,.96,.02,.17,.05,.34,.07,.5,.09,.32,.25,.6,.49,.84,.02,.03,.04,.05,.07,.08l.03,.04c.23,.28,.55,.4,.87,.52,.34,.09,.68,.09,1.02,0,.32-.09,.61-.26,.84-.49,.24-.24,.4-.52,.49-.84,.09-.34,.09-.68,0-1.02Z"/>
        <path class="cls-2" d="M683.83,367.7c-.12-.31-.24-.63-.51-.85-.01-.01-.03-.02-.04-.03l-.08-.06c-.17-.18-.37-.31-.6-.38-.22-.12-.46-.17-.71-.16-.26,0-.49,.04-.71,.16-.23,.07-.43,.2-.6,.38-.1,.12-.19,.25-.29,.38-.17,.29-.25,.6-.25,.94,.02,.16,.04,.33,.07,.49,.09,.31,.25,.59,.48,.82,.02,.03,.04,.05,.06,.08l.03,.04c.22,.27,.54,.39,.85,.51,.33,.09,.66,.09,.99,0,.32-.09,.59-.25,.82-.48,.23-.23,.39-.51,.48-.83,.09-.33,.09-.66,0-.99Z"/>
        <path class="cls-2" d="M713.21,367.7c-.12-.31-.24-.63-.51-.85-.01-.01-.03-.02-.04-.03l-.08-.06c-.17-.18-.37-.31-.6-.38-.22-.12-.46-.17-.71-.16-.26,0-.49,.04-.71,.16-.23,.07-.43,.2-.6,.38-.1,.12-.19,.25-.29,.38-.17,.29-.25,.6-.25,.94,.02,.16,.04,.33,.07,.49,.09,.31,.25,.59,.48,.82,.02,.03,.04,.05,.06,.08l.03,.04c.22,.27,.54,.39,.85,.51,.33,.09,.66,.09,.99,0,.32-.09,.59-.25,.82-.48,.23-.23,.39-.51,.48-.83,.09-.33,.09-.66,0-.99Z"/>
      </g>
      <g>
        <path class="cls-11" d="M194.21,43.42h109.82c2.5,0,4.53,2.03,4.53,4.53v127.82c0,2.5-2.03,4.54-4.54,4.54h-109.82c-2.5,0-4.53-2.03-4.53-4.53V47.96c0-2.5,2.03-4.54,4.54-4.54Z"/>
        <path class="cls-3" d="M291.49,59.38h-84.75c-1.93,0-3.5,1.56-3.5,3.48v98c0,1.92,1.57,3.48,3.5,3.48h84.75c1.93,0,3.5-1.56,3.5-3.48V62.86c0-1.92-1.57-3.48-3.5-3.48Z"/>
        <path class="cls-2" d="M272.13,82.39h-46.03c-1.05,0-1.9,.88-1.9,1.95v55.04c0,1.08,.85,1.95,1.9,1.95h46.03c1.05,0,1.9-.87,1.9-1.95v-55.04c0-1.08-.85-1.95-1.9-1.95Z"/>
      </g>
      <g>
        <path class="cls-11" d="M660.83,96.78h96.83c2.21,0,4,1.79,4,4v112.7c0,2.21-1.79,4-4,4h-96.83c-2.21,0-4-1.79-4-4V100.78c0-2.21,1.79-4,4-4Z"/>
        <path class="cls-3" d="M746.61,110.85h-74.72c-1.7,0-3.09,1.37-3.09,3.07v86.41c0,1.69,1.38,3.07,3.09,3.07h74.72c1.7,0,3.09-1.37,3.09-3.07V113.92c0-1.69-1.38-3.07-3.09-3.07Z"/>
        <path class="cls-2" d="M735.2,123.88h-51.92c-1.18,0-2.14,.99-2.14,2.2v62.07c0,1.22,.96,2.2,2.14,2.2h51.92c1.18,0,2.14-.99,2.14-2.2v-62.07c0-1.22-.96-2.2-2.14-2.2Z"/>
      </g>
      <g>
        <path class="cls-2" d="M531.81,227.12c-5.5-2.59-13.84,2.67-12.2,9.19,.85,3.38,4.24,5.56,7.6,5.58,3.63,.02,7.9-2.27,8.94-5.94,1.02-3.57-1.09-7.3-4.34-8.83Zm1.79,7.67c-.02,.11-.05,.21-.08,.32-.03,.11-.07,.22-.11,.33-.03,.04-.12,.25-.16,.31-.33,.58-.72,.99-1.36,1.51-.03,.02-.26,.2-.31,.23-.14,.1-.29,.2-.43,.29-.33,.21-.67,.4-1.02,.58-.47,.23-.33,.17-.75,.31-.45,.16-.91,.26-1.38,.37-2.27,.5-4.75-.64-5.83-2.66-.05-.1-.1-.2-.14-.3,0-.04-.13-.4-.13-.4-.04-.14-.07-.29-.1-.44-.01-.06-.02-.1-.03-.12,0-.02,.01-.06,.01-.13,0-.18,0-.36,0-.53,0-.07,0-.08,0-.09,.01-.06,.02-.11,.03-.17,.04-.17,.08-.35,.13-.52,.02-.07,.23-.64,.08-.28,.21-.51,.51-1.19,.84-1.61,.32-.41,.68-.87,.97-1.35,.02,0,.03,0,.05-.01,.4-.12,.69-.36,1.03-.57,0,0,.07-.04,.15-.09,.03,0,.52-.25,.68-.32,.06-.03,.18-.07,.24-.1,.15-.05,.29-.1,.44-.14,.13-.03,.51-.08,.57-.1,.3-.02,.61-.04,.91-.03,.11,0,.49,.05,.57,.05,.4,.07,.8,.16,1.19,.28,.19,.06,.38,.13,.58,.19,.02,0,.07,.03,.12,.05,.28,.13,.55,.27,.81,.43,.17,.1,.34,.21,.51,.33,.05,.03,.07,.05,.09,.06,.03,.02,.04,.04,.08,.07,.3,.27,.58,.55,.85,.85,.33,.38,.11,.16,.06,.08,.11,.17,.22,.34,.32,.51,.09,.16,.18,.33,.25,.5,.01,.04,.02,.07,.04,.14,.08,.28,.16,.55,.22,.84,.01,.09,.04,.23,.04,.29,.01,.24,.02,.48,0,.72,0,.08-.04,.28-.05,.33Z"/>
        <path class="cls-2" d="M250.95,364.11c-5.5-2.59-13.84,2.67-12.2,9.19,.85,3.38,4.24,5.56,7.6,5.58,3.63,.02,7.9-2.27,8.94-5.94,1.02-3.57-1.09-7.3-4.34-8.83Zm1.79,7.67c-.02,.11-.05,.21-.08,.32-.03,.11-.07,.22-.11,.33-.03,.04-.12,.25-.16,.31-.33,.58-.72,.99-1.36,1.51-.03,.02-.26,.2-.31,.23-.14,.1-.29,.2-.43,.29-.33,.21-.67,.4-1.02,.58-.47,.23-.33,.17-.75,.31-.45,.16-.91,.26-1.38,.37-2.27,.5-4.75-.64-5.83-2.66-.05-.1-.1-.2-.14-.3,0-.04-.13-.4-.13-.4-.04-.14-.07-.29-.1-.44-.01-.06-.02-.1-.03-.12,0-.02,.01-.06,.01-.13,0-.18,0-.36,0-.53,0-.07,0-.08,0-.09,.01-.06,.02-.11,.03-.17,.04-.17,.08-.35,.13-.52,.02-.07,.23-.64,.08-.28,.21-.51,.51-1.19,.84-1.61,.32-.41,.68-.87,.97-1.35,.02,0,.03,0,.05-.01,.4-.12,.69-.36,1.03-.57,0,0,.07-.04,.15-.09,.03,0,.52-.25,.68-.32,.06-.03,.18-.07,.24-.1,.15-.05,.29-.1,.44-.14,.13-.03,.51-.08,.57-.1,.3-.02,.61-.04,.91-.03,.11,0,.49,.05,.57,.05,.4,.07,.8,.16,1.19,.28,.19,.06,.38,.13,.58,.19,.02,0,.07,.03,.12,.05,.28,.13,.55,.27,.81,.43,.17,.1,.34,.21,.51,.33,.05,.03,.07,.05,.09,.06,.03,.02,.04,.04,.08,.07,.3,.27,.58,.55,.85,.85,.33,.38,.11,.16,.06,.08,.11,.17,.22,.34,.32,.51,.09,.16,.18,.33,.25,.5,.01,.04,.02,.07,.04,.14,.08,.28,.16,.55,.22,.84,.01,.09,.04,.23,.04,.29,.01,.24,.02,.48,0,.72,0,.08-.04,.28-.05,.33Z"/>
        <path class="cls-2" d="M412.23,36.72c-5.5-2.59-13.84,2.67-12.2,9.19,.85,3.38,4.24,5.56,7.6,5.58,3.63,.02,7.9-2.27,8.94-5.94,1.02-3.57-1.09-7.3-4.34-8.83Zm1.79,7.67c-.02,.11-.05,.21-.08,.32-.03,.11-.07,.22-.11,.33-.03,.04-.12,.25-.16,.31-.33,.58-.72,.99-1.36,1.51-.03,.02-.26,.2-.31,.23-.14,.1-.29,.2-.43,.29-.33,.21-.67,.4-1.02,.58-.47,.23-.33,.17-.75,.31-.45,.16-.91,.26-1.38,.37-2.27,.5-4.75-.64-5.83-2.66-.05-.1-.1-.2-.14-.3,0-.04-.13-.4-.13-.4-.04-.14-.07-.29-.1-.44-.01-.06-.02-.1-.03-.12,0-.02,.01-.06,.01-.13,0-.18,0-.36,0-.53,0-.07,0-.09,0-.09,.01-.06,.02-.11,.03-.17,.04-.17,.08-.35,.13-.52,.02-.07,.23-.64,.08-.28,.21-.51,.51-1.19,.84-1.61,.32-.41,.68-.87,.97-1.35,.02,0,.03,0,.05-.01,.4-.12,.68-.36,1.03-.57,0,0,.07-.04,.15-.09,.03,0,.52-.25,.68-.32,.06-.03,.18-.07,.24-.1,.15-.05,.29-.1,.44-.14,.13-.03,.51-.08,.57-.1,.3-.02,.61-.04,.91-.03,.11,0,.49,.05,.57,.05,.4,.07,.8,.16,1.19,.28,.19,.06,.38,.13,.58,.19,.02,0,.07,.03,.12,.05,.28,.13,.55,.27,.81,.43,.17,.1,.34,.21,.51,.33,.05,.03,.07,.05,.09,.06,.03,.02,.04,.04,.08,.07,.3,.27,.58,.55,.85,.85,.33,.38,.11,.16,.06,.08,.11,.17,.22,.34,.32,.51,.09,.16,.18,.33,.25,.5,.01,.04,.02,.07,.04,.14,.08,.28,.16,.55,.22,.84,.01,.09,.04,.23,.04,.29,.01,.24,.02,.48,0,.72,0,.08-.04,.28-.05,.33Z"/>
        <path class="cls-2" d="M743.25,343.7c-5.5-2.59-13.84,2.67-12.2,9.19,.85,3.38,4.24,5.56,7.6,5.58,3.63,.02,7.9-2.27,8.94-5.94,1.02-3.57-1.09-7.3-4.34-8.83Zm1.79,7.67c-.02,.11-.05,.21-.08,.32-.03,.11-.07,.22-.11,.33-.03,.04-.12,.25-.16,.31-.33,.58-.72,.99-1.36,1.51-.03,.02-.26,.2-.31,.23-.14,.1-.29,.2-.43,.29-.33,.21-.67,.4-1.02,.58-.47,.23-.33,.17-.75,.31-.45,.16-.91,.26-1.38,.37-2.27,.5-4.75-.64-5.83-2.66-.05-.1-.1-.2-.14-.3,0-.04-.13-.4-.13-.4-.04-.14-.07-.29-.1-.44-.01-.06-.02-.1-.03-.12,0-.02,.01-.06,.01-.13,0-.18,0-.36,0-.53,0-.07,0-.08,0-.09,.01-.06,.02-.11,.03-.17,.04-.17,.08-.35,.13-.52,.02-.07,.23-.64,.08-.28,.21-.51,.51-1.19,.84-1.61,.32-.41,.68-.87,.97-1.35,.02,0,.03,0,.05-.01,.4-.12,.69-.36,1.03-.57,0,0,.07-.04,.15-.09,.03,0,.52-.25,.68-.32,.06-.03,.18-.07,.24-.1,.15-.05,.29-.1,.44-.14,.13-.03,.51-.08,.57-.1,.3-.02,.61-.04,.91-.03,.11,0,.49,.05,.57,.05,.4,.07,.8,.16,1.19,.28,.19,.06,.38,.13,.58,.19,.02,0,.07,.03,.12,.05,.28,.13,.55,.27,.81,.43,.17,.1,.34,.21,.51,.33,.05,.03,.07,.05,.09,.06,.03,.02,.04,.04,.08,.07,.3,.27,.58,.55,.85,.85,.33,.38,.11,.16,.06,.08,.11,.17,.22,.34,.32,.51,.09,.16,.18,.33,.25,.5,.01,.04,.02,.07,.04,.14,.08,.28,.16,.55,.22,.84,.01,.09,.04,.23,.04,.29,.01,.24,.02,.48,0,.72,0,.08-.04,.28-.05,.33Z"/>
        <path class="cls-2" d="M549.45,247.18c-4.25-2-10.69,2.06-9.42,7.1,.66,2.61,3.27,4.29,5.87,4.31,2.8,.02,6.1-1.76,6.9-4.59,.78-2.76-.84-5.64-3.35-6.82Zm1.38,5.92c-.02,.08-.04,.16-.06,.25-.02,.09-.05,.17-.08,.26-.02,.03-.1,.19-.12,.24-.25,.45-.56,.76-1.05,1.17-.02,.02-.2,.16-.24,.18-.11,.08-.22,.15-.34,.22-.26,.16-.52,.31-.79,.45-.36,.18-.26,.13-.58,.24-.35,.12-.7,.2-1.07,.28-1.75,.38-3.67-.5-4.5-2.05-.04-.07-.08-.15-.11-.23,0-.03-.1-.31-.1-.31-.03-.11-.05-.22-.08-.34-.01-.04-.02-.07-.02-.1,0-.02,0-.05,.01-.1,0-.14,0-.28,0-.41,0-.05,0-.07,0-.07,0-.04,.01-.09,.02-.13,.03-.14,.06-.27,.1-.4,.02-.06,.18-.49,.07-.21,.16-.39,.39-.92,.65-1.25,.25-.31,.53-.67,.75-1.04,.01,0,.03,0,.04,0,.31-.09,.53-.28,.79-.44,0,0,.06-.03,.11-.07,.02,0,.4-.19,.52-.25,.05-.02,.14-.05,.19-.07,.11-.04,.23-.08,.34-.1,.1-.03,.4-.07,.44-.08,.23-.02,.47-.03,.7-.02,.08,0,.38,.04,.44,.04,.31,.06,.62,.12,.92,.21,.15,.05,.3,.1,.44,.15,.02,0,.06,.02,.1,.04,.21,.1,.42,.21,.63,.33,.13,.08,.26,.16,.39,.25,.04,.02,.06,.04,.07,.04,.02,.02,.03,.03,.06,.06,.23,.21,.45,.42,.66,.66,.25,.29,.09,.12,.04,.06,.09,.13,.17,.26,.25,.4,.07,.12,.14,.25,.2,.38,0,.03,.02,.05,.03,.1,.07,.21,.12,.43,.17,.65,.01,.07,.03,.18,.03,.22,.01,.19,.01,.37,0,.56,0,.06-.03,.22-.04,.25Z"/>
        <path class="cls-2" d="M188.26,265.25c-4.19-1.97-10.53,2.03-9.28,6.99,.65,2.57,3.22,4.23,5.78,4.24,2.76,.02,6.01-1.73,6.8-4.52,.77-2.72-.83-5.55-3.3-6.72Zm1.36,5.83c-.02,.08-.03,.16-.06,.24-.02,.08-.05,.17-.08,.25-.02,.03-.09,.19-.12,.23-.25,.44-.55,.75-1.04,1.15-.02,.02-.2,.15-.23,.18-.11,.08-.22,.15-.33,.22-.25,.16-.51,.31-.78,.44-.36,.18-.25,.13-.57,.24-.35,.12-.69,.2-1.05,.28-1.72,.38-3.61-.49-4.43-2.02-.04-.07-.07-.15-.11-.22,0-.03-.1-.3-.1-.31-.03-.11-.05-.22-.08-.33,0-.04-.02-.07-.02-.09,0-.02,0-.05,.01-.1,0-.13,0-.27,0-.41,0-.05,0-.06,0-.07,0-.04,.01-.09,.02-.13,.03-.13,.06-.26,.1-.39,.02-.06,.18-.49,.06-.21,.16-.39,.39-.91,.64-1.23,.24-.31,.52-.66,.74-1.02,.01,0,.03,0,.04,0,.3-.09,.52-.28,.78-.44,0,0,.05-.03,.11-.07,.02,0,.4-.19,.51-.24,.04-.02,.13-.05,.19-.07,.11-.04,.22-.07,.34-.1,.1-.02,.39-.06,.43-.08,.23-.02,.46-.03,.69-.02,.08,0,.38,.04,.43,.04,.3,.06,.61,.12,.9,.21,.15,.04,.29,.1,.44,.15,.02,0,.06,.02,.09,.04,.21,.1,.42,.21,.62,.33,.13,.08,.26,.16,.38,.25,.04,.02,.06,.04,.07,.04,.02,.02,.03,.03,.06,.05,.23,.2,.44,.41,.65,.65,.25,.29,.09,.12,.04,.06,.09,.13,.17,.26,.24,.39,.07,.12,.13,.25,.19,.38,0,.03,.02,.05,.03,.1,.06,.21,.12,.42,.17,.64,.01,.07,.03,.18,.03,.22,.01,.18,.01,.37,0,.55,0,.06-.03,.21-.04,.25Z"/>
        <path class="cls-2" d="M283.79,213.06c-4.25-2-10.69,2.06-9.42,7.1,.66,2.61,3.27,4.29,5.87,4.31,2.8,.02,6.1-1.76,6.9-4.59,.78-2.76-.84-5.64-3.35-6.82Zm1.38,5.92c-.02,.08-.04,.16-.06,.25-.02,.09-.05,.17-.08,.26-.02,.03-.1,.19-.12,.24-.25,.45-.56,.76-1.05,1.17-.02,.02-.2,.16-.24,.18-.11,.08-.22,.15-.34,.22-.26,.16-.52,.31-.79,.45-.36,.18-.26,.13-.58,.24-.35,.12-.7,.2-1.07,.28-1.75,.38-3.67-.5-4.5-2.05-.04-.07-.08-.15-.11-.23,0-.03-.1-.31-.1-.31-.03-.11-.05-.22-.08-.34-.01-.04-.02-.07-.02-.1,0-.02,0-.05,.01-.1,0-.14,0-.28,0-.41,0-.05,0-.07,0-.07,0-.04,.01-.09,.02-.13,.03-.13,.06-.27,.1-.4,.02-.06,.18-.49,.07-.21,.16-.39,.39-.92,.65-1.25,.25-.31,.53-.67,.75-1.04,.01,0,.03,0,.04,0,.31-.09,.53-.28,.79-.44,0,0,.06-.03,.11-.07,.02,0,.4-.19,.52-.25,.05-.02,.14-.05,.19-.07,.11-.04,.22-.08,.34-.1,.1-.03,.4-.07,.44-.08,.23-.02,.47-.03,.7-.02,.08,0,.38,.04,.44,.04,.31,.06,.62,.12,.92,.21,.15,.05,.3,.1,.44,.15,.02,0,.06,.02,.1,.04,.21,.1,.42,.21,.63,.33,.13,.08,.26,.16,.39,.25,.04,.02,.06,.04,.07,.04,.02,.02,.03,.03,.06,.06,.23,.21,.45,.42,.66,.66,.25,.29,.09,.12,.04,.06,.09,.13,.17,.26,.25,.4,.07,.12,.14,.25,.2,.38,0,.03,.02,.05,.03,.1,.07,.21,.12,.43,.17,.65,.01,.07,.03,.18,.03,.22,.01,.19,.01,.37,0,.56,0,.06-.03,.22-.04,.25Z"/>
        <path class="cls-2" d="M636.6,116c-4.25-2-10.69,2.06-9.42,7.1,.66,2.61,3.27,4.29,5.87,4.31,2.8,.02,6.1-1.76,6.9-4.59,.78-2.76-.84-5.64-3.35-6.82Zm1.38,5.92c-.02,.08-.04,.16-.06,.25-.02,.09-.05,.17-.08,.26-.02,.03-.1,.19-.12,.24-.25,.45-.56,.76-1.05,1.17-.02,.02-.2,.16-.24,.18-.11,.08-.22,.15-.34,.22-.26,.16-.52,.31-.79,.45-.36,.18-.26,.13-.58,.24-.35,.12-.7,.2-1.07,.28-1.75,.38-3.67-.5-4.5-2.05-.04-.07-.08-.15-.11-.23,0-.03-.1-.31-.1-.31-.03-.11-.05-.22-.08-.34-.01-.04-.02-.07-.02-.1,0-.02,0-.05,.01-.1,0-.14,0-.28,0-.41,0-.05,0-.07,0-.07,0-.04,.01-.09,.02-.13,.03-.14,.06-.27,.1-.4,.02-.06,.18-.49,.07-.21,.16-.39,.39-.92,.65-1.25,.25-.31,.53-.67,.75-1.04,.01,0,.03,0,.04,0,.31-.09,.53-.28,.79-.44,0,0,.06-.03,.11-.07,.02,0,.4-.19,.52-.25,.05-.02,.14-.05,.19-.07,.11-.04,.23-.08,.34-.1,.1-.03,.4-.07,.44-.08,.23-.02,.47-.03,.7-.02,.08,0,.38,.04,.44,.04,.31,.06,.62,.12,.92,.21,.15,.05,.3,.1,.44,.15,.02,0,.06,.02,.1,.04,.21,.1,.42,.21,.63,.33,.13,.08,.26,.16,.39,.25,.04,.03,.06,.04,.07,.04,.02,.02,.03,.03,.06,.06,.23,.21,.45,.42,.66,.66,.25,.29,.09,.12,.04,.06,.09,.13,.17,.26,.25,.4,.07,.12,.14,.25,.2,.38,0,.03,.02,.05,.03,.1,.07,.21,.12,.43,.17,.65,.01,.07,.03,.18,.03,.22,.01,.19,.01,.37,0,.56,0,.06-.03,.22-.04,.25Z"/>
      </g>
    </g>
  </g>
</svg>