<?xml version="1.0" encoding="UTF-8"?>
<svg xmlns="http://www.w3.org/2000/svg" viewBox="0 0 500 500">
  <defs>
    <style>
      .cls-1, .cls-2 {
        fill: #fff;
      }

      .cls-3 {
        fill: #fafafa;
      }

      .cls-4, .cls-2 {
        opacity: .6;
      }

      .cls-5 {
        fill: #f5f5f5;
      }

      .cls-6 {
        fill: #455a64;
      }

      .cls-7 {
        opacity: .2;
      }

      .cls-8 {
        fill: #e0e0e0;
      }

      .cls-9 {
        fill: #e8505b;
      }

      .cls-10 {
        opacity: .3;
      }

      .cls-11 {
        fill: #ffbe9d;
      }

      .cls-12 {
        fill: #ebebeb;
      }

      .cls-13 {
        stroke: #e8505b;
      }

      .cls-13, .cls-14 {
        fill: none;
        stroke-miterlimit: 10;
      }

      .cls-14 {
        stroke: #e0e0e0;
      }

      .cls-15 {
        fill: #263238;
      }
    </style>
  </defs>
  <g id="Background_Complete" data-name="Background Complete">
    <g>
      <path class="cls-5" d="M51.04,241.24l66.49-7.05-7.26-64.59-66.56,6.41,.9,5.01,1.99-.71c1.31-.06,1.9,.78,2.09,2.08,0,.03,0,.06,.01,.09,.15,1.32-.16,2.55-1.45,2.83l-2.51-.15,.51,4.54s4.42-1.01,4.62,1.8c0,0-.19,2.6-4.16,2.31l.43,3.79s4.41-1.2,4.66,1.71c.21,2.47-2.36,2.65-4.16,2.73l.45,4s4.39-.9,4.33,2.08c-.06,2.98-3.82,2.43-3.82,2.43l.57,5.09s4.06-1.78,4.4,1.25c.34,3.03-2.92,2.81-3.97,2.57l.43,3.87s4.14-1.77,4.33,2.13c.14,2.93-3.9,1.73-3.9,1.73l.61,5.38s4.06-1.73,4.39,1.17c.23,2.07-2.26,3.05-4.03,2.06l.61,5.44Z"/>
      <rect class="cls-8" x="61.27" y="165.62" width="39.89" height="10.92" transform="translate(-6.16 3.06) rotate(-2.08)"/>
      <path class="cls-8" d="M102.12,186.58s-.58,.11-1.64,.2c-1.15,.09-2.65,.21-4.47,.36-3.78,.28-9,.63-14.78,.99-5.77,.36-11,.65-14.79,.84-1.83,.08-3.34,.14-4.48,.19-1.06,.03-1.65,.04-1.65,0,0-.04,.58-.11,1.64-.2,1.15-.09,2.65-.21,4.47-.36,3.78-.28,9-.63,14.78-.99,5.77-.36,11-.65,14.79-.84,1.83-.08,3.34-.14,4.49-.19,1.06-.03,1.65-.04,1.65,0Z"/>
      <path class="cls-8" d="M103.71,194.68s-.58,.11-1.64,.2c-1.15,.09-2.65,.21-4.47,.36-3.78,.28-9,.63-14.78,.99-5.77,.36-11,.65-14.79,.84-1.83,.08-3.34,.14-4.48,.19-1.06,.03-1.65,.04-1.65,0s.58-.11,1.64-.2c1.15-.09,2.65-.21,4.47-.36,3.78-.28,9-.63,14.78-.99,5.77-.36,11-.65,14.79-.84,1.83-.08,3.34-.14,4.49-.19,1.06-.03,1.65-.04,1.65,0Z"/>
      <path class="cls-8" d="M104.28,203s-.58,.11-1.64,.2c-1.15,.09-2.65,.21-4.48,.36-3.78,.28-9,.63-14.78,.99-5.77,.36-11,.65-14.79,.84-1.83,.08-3.34,.14-4.48,.19-1.06,.03-1.65,.04-1.65,0,0-.04,.58-.11,1.64-.2,1.15-.09,2.65-.21,4.47-.36,3.78-.28,9-.63,14.78-.99,5.77-.36,11-.65,14.79-.84,1.83-.08,3.34-.14,4.49-.19,1.06-.03,1.65-.04,1.65,0Z"/>
      <path class="cls-8" d="M105.3,211.31s-.58,.11-1.64,.2c-1.15,.09-2.65,.21-4.47,.36-3.78,.28-9,.63-14.78,.99-5.77,.36-11,.65-14.79,.84-1.83,.08-3.34,.14-4.48,.19-1.06,.03-1.65,.04-1.65,0,0-.04,.58-.11,1.64-.2,1.15-.09,2.65-.21,4.47-.36,3.78-.28,9-.63,14.78-.99,5.77-.36,11-.65,14.79-.84,1.83-.08,3.34-.15,4.49-.19,1.06-.03,1.65-.04,1.65,0Z"/>
      <path class="cls-8" d="M107.61,220.27s-.58,.11-1.64,.2c-1.15,.09-2.65,.21-4.47,.36-3.78,.28-9,.63-14.78,.99-5.77,.36-11,.65-14.79,.84-1.83,.08-3.34,.14-4.48,.19-1.06,.03-1.65,.04-1.65,0s.58-.11,1.64-.2c1.15-.09,2.65-.21,4.47-.36,3.78-.28,9-.63,14.78-.99,5.77-.36,11-.65,14.79-.84,1.83-.08,3.34-.14,4.49-.19,1.06-.03,1.65-.04,1.65,0Z"/>
    </g>
    <g>
      <path class="cls-3" d="M95.2,67.34l-.42,66.86h64.99l1.07-66.86-5.08,.34,.48,2.05c-.08,1.31-.99,1.8-2.3,1.84-.03,0-.06,0-.09,0-1.33,0-2.52-.44-2.65-1.76l.43-2.48h-4.57s.51,4.5-2.3,4.39c0,0-2.56-.48-1.83-4.39h-3.81s.7,4.52-2.22,4.44c-2.48-.07-2.37-2.64-2.25-4.44h-4.02s.41,4.46-2.55,4.07c-2.96-.39-1.98-4.07-1.98-4.07h-5.12s1.32,4.23-1.74,4.23-2.47-3.22-2.11-4.23h-3.89s1.3,4.31-2.6,4.07c-2.92-.18-1.29-4.07-1.29-4.07h-5.42s1.27,4.23-1.65,4.23c-2.08,0-2.78-2.58-1.6-4.23h-5.47Z"/>
      <rect class="cls-12" x="83.4" y="66.21" width="31.76" height="8.69" transform="translate(-22.52 70.91) rotate(-35.57)"/>
      <rect class="cls-12" x="141.33" y="127.42" width="31.76" height="8.69" transform="translate(-47.31 116.02) rotate(-35.57)"/>
      <path class="cls-8" d="M153.95,85s-.17,.04-.51,.05c-.39,.01-.87,.03-1.46,.05-1.34,.02-3.15,.05-5.35,.08-4.52,.05-10.77,.08-17.66,.08s-13.14-.03-17.67-.08c-2.2-.03-4.01-.06-5.35-.08-.58-.02-1.06-.04-1.46-.05-.33-.02-.51-.03-.51-.05s.17-.04,.51-.05c.39-.01,.87-.03,1.46-.05,1.34-.02,3.15-.05,5.35-.08,4.52-.05,10.77-.08,17.67-.08s13.14,.03,17.66,.08c2.2,.03,4.01,.06,5.35,.08,.58,.02,1.06,.04,1.46,.05,.33,.02,.51,.03,.51,.05Z"/>
      <path class="cls-8" d="M152.79,97.03s-.17,.04-.48,.05c-.38,.01-.84,.03-1.39,.05-1.29,.02-3.01,.05-5.11,.08-4.31,.05-10.27,.08-16.86,.08s-12.54-.03-16.86-.08c-2.09-.03-3.82-.06-5.11-.08-.55-.02-1.01-.04-1.39-.05-.32-.02-.48-.03-.48-.05s.17-.04,.48-.05c.38-.01,.84-.03,1.39-.05,1.29-.02,3.01-.05,5.11-.08,4.31-.05,10.27-.08,16.86-.08s12.54,.03,16.86,.08c2.09,.03,3.82,.06,5.11,.08,.55,.02,1.01,.04,1.39,.05,.32,.02,.48,.03,.48,.05Z"/>
      <path class="cls-8" d="M130.1,108.64c0,.07-1.33,.14-3.49,.18-2.16,.05-5.14,.08-8.43,.08s-6.28-.03-8.43-.08c-2.16-.05-3.49-.11-3.49-.18s1.33-.14,3.49-.18,5.14-.08,8.43-.08,6.27,.03,8.43,.08c2.16,.05,3.49,.11,3.49,.18Z"/>
    </g>
  </g>
  <g id="Floor">
    <path class="cls-15" d="M473.88,461.86c0,.14-92.7,.26-207.02,.26s-207.04-.12-207.04-.26,92.68-.26,207.04-.26,207.02,.12,207.02,.26Z"/>
  </g>
  <g id="Plant">
    <g>
      <path class="cls-9" d="M388.05,423.08c-1.77,2.53-5.21,1.69-6.81,.15-1.6-1.54-2.27-3.78-2.88-5.92-1.4-4.88-2.82-9.99-1.77-14.96,.31-1.48,.87-2.97,1.91-4.07,1.04-1.1,2.65-1.76,4.11-1.37,1.74,.46,2.81,2.16,3.59,3.78,2.29,4.75,3.51,10.02,3.52,15.3,0,2.46-.28,5.05-1.67,7.08"/>
      <path class="cls-7" d="M388.05,423.08c-1.77,2.53-5.21,1.69-6.81,.15-1.6-1.54-2.27-3.78-2.88-5.92-1.4-4.88-2.82-9.99-1.77-14.96,.31-1.48,.87-2.97,1.91-4.07,1.04-1.1,2.65-1.76,4.11-1.37,1.74,.46,2.81,2.16,3.59,3.78,2.29,4.75,3.51,10.02,3.52,15.3,0,2.46-.28,5.05-1.67,7.08"/>
      <path class="cls-9" d="M381.41,435.89c-2.9-1.49-6.31-1.69-9.52-1.16-1.73,.29-3.53,.8-4.7,2.1-1.18,1.3-1.4,3.58-.05,4.7,.8,.66,1.92,.76,2.97,.75,2.52-.03,5.31-.47,7.32,1.04,1.15,.86,1.91,2.3,3.28,2.73,1.34,.42,2.86-.38,3.57-1.59,.71-1.21,.74-2.73,.4-4.09,0,0-.35-2.98-3.27-4.48Z"/>
      <path class="cls-9" d="M392.91,426.71c-1.92-2.28-2.29-5.61-1.43-8.47,.86-2.86,2.79-5.29,5.02-7.28,2.61-2.33,5.68-4.14,8.98-5.3,1.3-.46,2.67-.82,4.04-.69,1.37,.13,2.75,.83,3.39,2.05,.95,1.8,.04,3.99-.94,5.77-1.73,3.14-3.7,6.15-5.9,8.99-1.77,2.28-3.79,4.53-6.49,5.56-2.7,1.03-5.5,.91-6.92-.96"/>
      <path class="cls-15" d="M388.17,461.24s-.09-.41-.16-1.15c-.08-.84-.18-1.89-.31-3.14-.15-1.32-.34-2.89-.71-4.6-.37-1.71-.94-3.56-1.67-5.43-.76-1.86-1.69-3.56-2.77-4.91-1.08-1.36-2.33-2.35-3.51-2.91-1.17-.58-2.23-.81-2.95-.92-.73-.08-1.14-.13-1.14-.17,0-.03,.41-.04,1.16-.02,.75,.05,1.84,.24,3.08,.8,1.24,.55,2.57,1.55,3.7,2.94,1.14,1.38,2.1,3.12,2.87,5.01,.75,1.91,1.31,3.78,1.66,5.52,.35,1.74,.51,3.33,.61,4.66,.1,1.33,.14,2.41,.16,3.16,.02,.75,0,1.16-.02,1.16Z"/>
      <path class="cls-15" d="M387.95,458.83s-.03-.18-.03-.53c0-.4,0-.91,0-1.53,0-1.32,0-3.24-.07-5.6-.12-4.73-.52-11.26-1.31-18.44-.79-7.18-1.84-13.64-2.8-18.27-.23-1.16-.45-2.21-.67-3.12-.2-.92-.38-1.71-.55-2.35-.14-.6-.26-1.09-.36-1.48-.08-.34-.11-.52-.09-.53,.02,0,.08,.17,.19,.5,.12,.38,.26,.87,.44,1.46,.2,.63,.4,1.42,.63,2.33,.24,.91,.49,1.95,.74,3.11,1.04,4.63,2.15,11.1,2.94,18.29,.79,7.19,1.14,13.74,1.17,18.49,.03,2.37-.02,4.29-.08,5.62-.04,.62-.07,1.12-.09,1.52-.03,.35-.05,.53-.06,.53Z"/>
      <path class="cls-15" d="M387.92,446.19s-.03-.57,.01-1.59c.06-1.02,.2-2.5,.49-4.32,.31-1.81,.73-3.96,1.4-6.29,.64-2.34,1.52-4.87,2.63-7.44,2.18-5.17,5.15-9.41,7.72-12.03,.6-.7,1.28-1.2,1.82-1.69,.28-.24,.53-.47,.78-.66,.25-.17,.49-.34,.7-.49,.85-.58,1.32-.89,1.34-.86,.08,.1-1.9,1.27-4.4,3.92-2.49,2.65-5.37,6.85-7.53,11.98-1.11,2.55-1.99,5.05-2.64,7.37-.69,2.31-1.15,4.44-1.49,6.23-.33,1.79-.52,3.26-.63,4.27-.09,1.02-.16,1.58-.2,1.58Z"/>
    </g>
  </g>
  <g id="Notebook">
    <g>
      <g>
        <path class="cls-6" d="M389.58,373.19l-216.35-27.51L210.92,49.35l221.72,28.2c2.42,.31,4.14,2.52,3.83,4.95l-35.88,282.18c-.69,5.39-5.61,9.2-11,8.52Z"/>
        <rect class="cls-9" x="423.55" y="122.6" width="14.53" height="27.04" transform="translate(241.44 546.32) rotate(-82.75)"/>
        <rect class="cls-10" x="423.55" y="122.6" width="14.53" height="27.04" transform="translate(241.44 546.32) rotate(-82.75)"/>
        <rect class="cls-8" x="200.47" y="70.71" width="210.9" height="284.06" transform="translate(29.28 -36.89) rotate(7.25)"/>
        <rect class="cls-3" x="191.58" y="66.08" width="210.9" height="284.06" transform="translate(28.63 -35.81) rotate(7.25)"/>
        <g>
          <line class="cls-14" x1="213.52" y1="81.8" x2="422" y2="108.31"/>
          <line class="cls-14" x1="213.05" y1="95.98" x2="421.54" y2="122.49"/>
          <line class="cls-14" x1="211.27" y1="109.99" x2="419.76" y2="136.51"/>
          <line class="cls-14" x1="209.49" y1="124" x2="417.97" y2="150.52"/>
          <line class="cls-14" x1="207.71" y1="138.02" x2="416.19" y2="164.53"/>
          <line class="cls-14" x1="205.92" y1="152.03" x2="414.41" y2="178.54"/>
          <line class="cls-14" x1="204.14" y1="166.04" x2="412.63" y2="192.55"/>
          <line class="cls-14" x1="202.36" y1="180.05" x2="410.85" y2="206.56"/>
          <line class="cls-14" x1="200.58" y1="194.06" x2="409.06" y2="220.58"/>
          <line class="cls-14" x1="198.8" y1="208.07" x2="407.28" y2="234.59"/>
          <line class="cls-14" x1="197.01" y1="222.09" x2="405.5" y2="248.6"/>
          <line class="cls-14" x1="195.23" y1="236.1" x2="403.72" y2="262.61"/>
          <line class="cls-14" x1="193.45" y1="250.11" x2="401.94" y2="276.62"/>
          <line class="cls-6" x1="191.67" y1="264.12" x2="400.15" y2="290.63"/>
          <line class="cls-14" x1="189.89" y1="278.13" x2="398.37" y2="304.65"/>
          <line class="cls-14" x1="188.11" y1="292.14" x2="396.59" y2="318.66"/>
          <line class="cls-14" x1="186.32" y1="306.16" x2="394.81" y2="332.67"/>
          <line class="cls-14" x1="184.54" y1="320.17" x2="393.03" y2="346.68"/>
        </g>
        <line class="cls-13" x1="243.53" y1="59.63" x2="207.82" y2="340.45"/>
        <g>
          <path class="cls-6" d="M228.56,71.3c-.3,2.35-2.45,4.01-4.79,3.71s-4.01-2.45-3.71-4.79c.3-2.35,2.45-4.01,4.79-3.71,2.35,.3,4.01,2.45,3.71,4.79Z"/>
          <path class="cls-6" d="M224.58,102.56c-.3,2.35-2.45,4.01-4.79,3.71-2.35-.3-4.01-2.45-3.71-4.79,.3-2.35,2.45-4.01,4.79-3.71,2.35,.3,4.01,2.45,3.71,4.79Z"/>
          <path class="cls-6" d="M220.6,133.83c-.3,2.35-2.45,4.01-4.79,3.71-2.35-.3-4.01-2.45-3.71-4.79,.3-2.35,2.45-4.01,4.79-3.71,2.35,.3,4.01,2.45,3.71,4.79Z"/>
          <path class="cls-6" d="M216.63,165.09c-.3,2.35-2.45,4.01-4.79,3.71-2.35-.3-4.01-2.45-3.71-4.79s2.45-4.01,4.79-3.71c2.35,.3,4.01,2.45,3.71,4.79Z"/>
          <path class="cls-6" d="M212.65,196.36c-.3,2.35-2.45,4.01-4.79,3.71-2.35-.3-4.01-2.45-3.71-4.79,.3-2.35,2.45-4.01,4.79-3.71,2.35,.3,4.01,2.45,3.71,4.79Z"/>
          <path class="cls-6" d="M208.67,227.63c-.3,2.35-2.45,4.01-4.79,3.71-2.35-.3-4.01-2.45-3.71-4.79,.3-2.35,2.45-4.01,4.79-3.71,2.35,.3,4.01,2.45,3.71,4.79Z"/>
          <path class="cls-6" d="M204.7,258.89c-.3,2.35-2.45,4.01-4.79,3.71-2.35-.3-4.01-2.45-3.71-4.79,.3-2.35,2.45-4.01,4.79-3.71,2.35,.3,4.01,2.45,3.71,4.79Z"/>
          <path class="cls-6" d="M200.72,290.16c-.3,2.35-2.45,4.01-4.79,3.71-2.35-.3-4.01-2.45-3.71-4.79,.3-2.35,2.45-4.01,4.79-3.71,2.35,.3,4.01,2.45,3.71,4.79Z"/>
          <path class="cls-6" d="M196.75,321.42c-.3,2.35-2.45,4.01-4.79,3.71-2.35-.3-4.01-2.45-3.71-4.79s2.45-4.01,4.79-3.71c2.35,.3,4.01,2.45,3.71,4.79Z"/>
          <g>
            <path class="cls-9" d="M207.32,83.71c-.02,.05-.18,.05-.48,0-.29-.07-.75-.13-1.29-.35-.54-.23-1.21-.49-1.89-.98-.71-.45-1.43-1.11-2.1-1.94-.63-.85-1.26-1.87-1.64-3.07-.4-1.19-.64-2.52-.65-3.93,.02-1.4,.13-2.93,.9-4.41,.73-1.42,1.87-2.66,3.24-3.58,1.37-.93,2.91-1.52,4.45-1.78,1.53-.26,3.03-.22,4.41,0,2.77,.45,5.06,1.58,6.79,2.69,1.74,1.12,2.98,2.23,3.8,3.02,.81,.8,1.21,1.3,1.14,1.38-.07,.08-.6-.26-1.52-.91-.93-.64-2.24-1.59-3.98-2.54-1.73-.95-3.9-1.88-6.43-2.22-1.26-.16-2.6-.17-3.93,.08-1.33,.24-2.66,.76-3.84,1.56-1.18,.8-2.14,1.84-2.76,3-.61,1.1-.77,2.46-.81,3.71-.03,1.26,.14,2.46,.45,3.54,.28,1.09,.79,2.01,1.29,2.81,.55,.77,1.13,1.42,1.73,1.9,.58,.51,1.16,.83,1.63,1.13,.47,.28,.88,.44,1.13,.6,.26,.15,.39,.25,.38,.3Z"/>
            <path class="cls-9" d="M203.35,114.97c-.02,.05-.18,.05-.48,0-.29-.07-.75-.13-1.29-.35-.54-.23-1.21-.49-1.89-.98-.71-.45-1.43-1.11-2.1-1.94-.63-.85-1.26-1.87-1.64-3.07-.4-1.19-.64-2.52-.65-3.93,.02-1.4,.13-2.93,.9-4.41,.73-1.42,1.87-2.66,3.24-3.58,1.37-.93,2.91-1.52,4.45-1.78,1.53-.26,3.03-.22,4.41,0,2.77,.45,5.06,1.58,6.79,2.69,1.74,1.12,2.98,2.23,3.8,3.02,.81,.8,1.21,1.3,1.14,1.38-.07,.08-.6-.26-1.52-.91-.93-.64-2.24-1.59-3.98-2.54-1.73-.95-3.9-1.88-6.43-2.22-1.26-.16-2.6-.17-3.93,.08-1.33,.24-2.66,.76-3.84,1.56-1.18,.8-2.14,1.84-2.76,3-.61,1.1-.77,2.46-.81,3.71-.03,1.26,.14,2.46,.45,3.54,.28,1.09,.79,2.01,1.29,2.81,.55,.77,1.13,1.42,1.73,1.9,.58,.51,1.16,.83,1.63,1.13,.47,.28,.88,.44,1.13,.6,.26,.15,.39,.25,.38,.3Z"/>
            <path class="cls-9" d="M199.37,146.24c-.02,.05-.18,.05-.48,0-.29-.07-.75-.13-1.29-.35-.54-.23-1.21-.49-1.89-.98-.71-.45-1.43-1.11-2.1-1.94-.63-.85-1.26-1.87-1.64-3.07-.4-1.19-.64-2.52-.65-3.93,.02-1.4,.13-2.93,.9-4.41,.73-1.42,1.87-2.66,3.24-3.58,1.37-.93,2.91-1.52,4.45-1.78,1.53-.26,3.03-.22,4.41,0,2.77,.45,5.06,1.58,6.79,2.69,1.74,1.12,2.98,2.23,3.8,3.02,.81,.8,1.21,1.3,1.14,1.38-.07,.08-.6-.26-1.52-.91-.93-.64-2.24-1.59-3.98-2.54-1.73-.95-3.9-1.88-6.43-2.22-1.26-.16-2.6-.17-3.93,.08-1.33,.24-2.66,.76-3.84,1.56-1.18,.8-2.14,1.84-2.76,3-.61,1.1-.77,2.46-.81,3.71-.03,1.26,.14,2.46,.45,3.54,.28,1.09,.79,2.01,1.29,2.81,.55,.77,1.13,1.42,1.73,1.9,.58,.51,1.16,.83,1.63,1.13,.47,.28,.88,.44,1.13,.6,.26,.15,.39,.25,.38,.3Z"/>
            <path class="cls-9" d="M195.39,177.51c-.02,.05-.18,.05-.48,0-.29-.07-.75-.13-1.29-.35-.54-.23-1.21-.49-1.89-.98-.71-.45-1.43-1.11-2.1-1.94-.63-.85-1.26-1.87-1.64-3.07-.4-1.19-.64-2.52-.65-3.93,.02-1.4,.13-2.93,.9-4.41,.73-1.42,1.87-2.66,3.24-3.58,1.37-.93,2.91-1.52,4.45-1.78,1.53-.26,3.03-.22,4.41,0,2.77,.45,5.06,1.58,6.79,2.69,1.74,1.12,2.98,2.23,3.8,3.02,.81,.8,1.21,1.3,1.14,1.38-.07,.08-.6-.26-1.52-.91-.93-.64-2.24-1.59-3.98-2.54-1.73-.95-3.9-1.88-6.43-2.22-1.26-.16-2.6-.17-3.93,.08-1.33,.24-2.66,.76-3.84,1.56-1.18,.8-2.14,1.84-2.76,3-.61,1.1-.77,2.46-.81,3.71-.03,1.26,.14,2.46,.45,3.54,.28,1.09,.79,2.01,1.29,2.81,.55,.77,1.14,1.42,1.73,1.9,.58,.51,1.16,.83,1.63,1.13,.47,.28,.88,.44,1.13,.6,.26,.15,.39,.25,.38,.3Z"/>
            <path class="cls-9" d="M191.42,208.77c-.02,.05-.18,.05-.48,0-.29-.07-.75-.13-1.29-.35-.54-.23-1.21-.49-1.89-.98-.71-.45-1.43-1.11-2.1-1.94-.63-.85-1.26-1.87-1.64-3.07-.4-1.19-.64-2.52-.65-3.93,.02-1.4,.13-2.93,.9-4.41,.73-1.42,1.87-2.66,3.24-3.58,1.37-.93,2.91-1.52,4.45-1.78,1.53-.26,3.03-.22,4.41,0,2.77,.45,5.06,1.58,6.79,2.69,1.74,1.12,2.98,2.23,3.8,3.02,.81,.8,1.21,1.3,1.14,1.38-.07,.08-.6-.26-1.52-.91-.93-.64-2.24-1.59-3.98-2.54-1.73-.95-3.9-1.88-6.43-2.22-1.26-.16-2.6-.17-3.93,.08-1.33,.24-2.66,.76-3.84,1.56-1.18,.8-2.14,1.84-2.76,3-.61,1.1-.77,2.46-.81,3.71-.03,1.26,.14,2.46,.45,3.54,.28,1.09,.79,2.01,1.29,2.81,.55,.77,1.13,1.42,1.73,1.9,.58,.51,1.16,.83,1.63,1.13,.47,.28,.88,.44,1.13,.6,.26,.15,.39,.25,.38,.3Z"/>
            <path class="cls-9" d="M187.44,240.04c-.02,.05-.18,.05-.48,0-.29-.07-.75-.13-1.29-.35-.54-.23-1.21-.49-1.89-.98-.71-.45-1.43-1.11-2.1-1.94-.63-.85-1.26-1.87-1.64-3.07-.4-1.19-.64-2.52-.65-3.93,.02-1.4,.13-2.93,.9-4.41,.73-1.42,1.87-2.66,3.24-3.58,1.37-.93,2.91-1.52,4.45-1.78,1.53-.26,3.03-.22,4.41,0,2.77,.45,5.06,1.58,6.79,2.69,1.74,1.12,2.98,2.23,3.8,3.02,.81,.8,1.21,1.3,1.14,1.38-.07,.08-.6-.26-1.52-.91-.93-.64-2.24-1.59-3.98-2.54-1.73-.95-3.9-1.88-6.43-2.22-1.26-.16-2.6-.17-3.93,.08-1.33,.24-2.66,.76-3.84,1.56-1.18,.8-2.14,1.84-2.76,3-.61,1.1-.77,2.46-.81,3.71-.03,1.26,.14,2.46,.45,3.54,.28,1.09,.79,2.01,1.29,2.81,.55,.77,1.13,1.42,1.73,1.9,.58,.51,1.16,.83,1.63,1.13,.47,.28,.88,.44,1.13,.6,.26,.15,.39,.25,.38,.3Z"/>
            <path class="cls-9" d="M183.47,271.3c-.02,.05-.18,.05-.48,0-.29-.07-.75-.13-1.29-.35-.54-.23-1.21-.49-1.89-.98-.71-.45-1.43-1.11-2.1-1.94-.63-.85-1.26-1.87-1.64-3.07-.4-1.19-.64-2.52-.65-3.93,.02-1.4,.13-2.93,.9-4.41,.73-1.42,1.87-2.66,3.24-3.58,1.37-.93,2.91-1.52,4.45-1.78,1.53-.26,3.03-.22,4.41,0,2.77,.45,5.06,1.58,6.79,2.69,1.74,1.12,2.98,2.23,3.8,3.02,.81,.8,1.21,1.3,1.14,1.38-.07,.08-.6-.26-1.52-.91-.93-.64-2.24-1.59-3.98-2.54-1.73-.95-3.9-1.88-6.43-2.22-1.26-.16-2.6-.17-3.93,.08-1.33,.24-2.66,.76-3.84,1.56-1.18,.8-2.14,1.84-2.76,3-.61,1.1-.77,2.46-.81,3.71-.03,1.26,.14,2.46,.45,3.54,.28,1.09,.79,2.01,1.29,2.81,.55,.77,1.13,1.42,1.73,1.9,.58,.51,1.16,.83,1.63,1.13,.47,.28,.88,.44,1.13,.6,.26,.15,.39,.25,.38,.3Z"/>
            <path class="cls-9" d="M179.49,302.57c-.02,.05-.18,.05-.48,0-.29-.07-.75-.13-1.29-.35-.54-.23-1.21-.49-1.89-.98-.71-.45-1.43-1.11-2.1-1.94-.63-.85-1.26-1.87-1.64-3.07-.4-1.19-.64-2.52-.65-3.93,.02-1.4,.13-2.93,.9-4.41,.73-1.42,1.87-2.66,3.24-3.58,1.37-.93,2.91-1.52,4.45-1.78,1.53-.26,3.03-.22,4.41,0,2.77,.45,5.06,1.58,6.79,2.69,1.74,1.12,2.98,2.23,3.8,3.02,.81,.8,1.21,1.3,1.14,1.38-.07,.08-.6-.26-1.52-.91-.93-.64-2.24-1.59-3.98-2.54-1.73-.95-3.9-1.88-6.43-2.22-1.26-.16-2.6-.17-3.93,.08-1.33,.24-2.66,.76-3.84,1.56-1.18,.8-2.14,1.84-2.76,3-.61,1.1-.77,2.46-.81,3.71-.03,1.26,.14,2.46,.45,3.54,.28,1.09,.79,2.01,1.29,2.81,.55,.77,1.13,1.42,1.73,1.9,.58,.51,1.16,.83,1.63,1.13,.47,.28,.88,.44,1.13,.6,.26,.15,.39,.25,.38,.3Z"/>
            <path class="cls-9" d="M175.51,333.83c-.02,.05-.18,.05-.48,0-.29-.07-.75-.13-1.29-.35-.54-.23-1.21-.49-1.89-.98-.71-.45-1.43-1.11-2.1-1.94-.63-.85-1.26-1.87-1.64-3.07-.4-1.19-.64-2.52-.65-3.93,.02-1.4,.13-2.93,.9-4.41,.73-1.42,1.87-2.66,3.24-3.58,1.37-.93,2.91-1.52,4.45-1.78,1.53-.26,3.03-.22,4.41,0,2.77,.45,5.06,1.58,6.79,2.69,1.74,1.12,2.98,2.23,3.8,3.02,.81,.8,1.21,1.3,1.14,1.38-.07,.08-.6-.26-1.52-.91-.93-.64-2.24-1.59-3.98-2.54-1.73-.95-3.9-1.88-6.43-2.22-1.26-.16-2.6-.17-3.93,.08-1.33,.24-2.66,.76-3.84,1.56-1.18,.8-2.14,1.84-2.76,3-.61,1.1-.77,2.46-.81,3.71-.03,1.26,.14,2.46,.45,3.54,.28,1.09,.79,2.01,1.29,2.81,.55,.77,1.13,1.42,1.73,1.9,.58,.51,1.16,.83,1.63,1.13,.47,.28,.88,.44,1.13,.6,.26,.15,.39,.25,.38,.3Z"/>
          </g>
          <g class="cls-7">
            <path d="M207.32,83.71c-.02,.05-.18,.05-.48,0-.29-.07-.75-.13-1.29-.35-.54-.23-1.21-.49-1.89-.98-.71-.45-1.43-1.11-2.1-1.94-.63-.85-1.26-1.87-1.64-3.07-.4-1.19-.64-2.52-.65-3.93,.02-1.4,.13-2.93,.9-4.41,.73-1.42,1.87-2.66,3.24-3.58,1.37-.93,2.91-1.52,4.45-1.78,1.53-.26,3.03-.22,4.41,0,2.77,.45,5.06,1.58,6.79,2.69,1.74,1.12,2.98,2.23,3.8,3.02,.81,.8,1.21,1.3,1.14,1.38-.07,.08-.6-.26-1.52-.91-.93-.64-2.24-1.59-3.98-2.54-1.73-.95-3.9-1.88-6.43-2.22-1.26-.16-2.6-.17-3.93,.08-1.33,.24-2.66,.76-3.84,1.56-1.18,.8-2.14,1.84-2.76,3-.61,1.1-.77,2.46-.81,3.71-.03,1.26,.14,2.46,.45,3.54,.28,1.09,.79,2.01,1.29,2.81,.55,.77,1.13,1.42,1.73,1.9,.58,.51,1.16,.83,1.63,1.13,.47,.28,.88,.44,1.13,.6,.26,.15,.39,.25,.38,.3Z"/>
            <path d="M203.35,114.97c-.02,.05-.18,.05-.48,0-.29-.07-.75-.13-1.29-.35-.54-.23-1.21-.49-1.89-.98-.71-.45-1.43-1.11-2.1-1.94-.63-.85-1.26-1.87-1.64-3.07-.4-1.19-.64-2.52-.65-3.93,.02-1.4,.13-2.93,.9-4.41,.73-1.42,1.87-2.66,3.24-3.58,1.37-.93,2.91-1.52,4.45-1.78,1.53-.26,3.03-.22,4.41,0,2.77,.45,5.06,1.58,6.79,2.69,1.74,1.12,2.98,2.23,3.8,3.02,.81,.8,1.21,1.3,1.14,1.38-.07,.08-.6-.26-1.52-.91-.93-.64-2.24-1.59-3.98-2.54-1.73-.95-3.9-1.88-6.43-2.22-1.26-.16-2.6-.17-3.93,.08-1.33,.24-2.66,.76-3.84,1.56-1.18,.8-2.14,1.84-2.76,3-.61,1.1-.77,2.46-.81,3.71-.03,1.26,.14,2.46,.45,3.54,.28,1.09,.79,2.01,1.29,2.81,.55,.77,1.13,1.42,1.73,1.9,.58,.51,1.16,.83,1.63,1.13,.47,.28,.88,.44,1.13,.6,.26,.15,.39,.25,.38,.3Z"/>
            <path d="M199.37,146.24c-.02,.05-.18,.05-.48,0-.29-.07-.75-.13-1.29-.35-.54-.23-1.21-.49-1.89-.98-.71-.45-1.43-1.11-2.1-1.94-.63-.85-1.26-1.87-1.64-3.07-.4-1.19-.64-2.52-.65-3.93,.02-1.4,.13-2.93,.9-4.41,.73-1.42,1.87-2.66,3.24-3.58,1.37-.93,2.91-1.52,4.45-1.78,1.53-.26,3.03-.22,4.41,0,2.77,.45,5.06,1.58,6.79,2.69,1.74,1.12,2.98,2.23,3.8,3.02,.81,.8,1.21,1.3,1.14,1.38-.07,.08-.6-.26-1.52-.91-.93-.64-2.24-1.59-3.98-2.54-1.73-.95-3.9-1.88-6.43-2.22-1.26-.16-2.6-.17-3.93,.08-1.33,.24-2.66,.76-3.84,1.56-1.18,.8-2.14,1.84-2.76,3-.61,1.1-.77,2.46-.81,3.71-.03,1.26,.14,2.46,.45,3.54,.28,1.09,.79,2.01,1.29,2.81,.55,.77,1.13,1.42,1.73,1.9,.58,.51,1.16,.83,1.63,1.13,.47,.28,.88,.44,1.13,.6,.26,.15,.39,.25,.38,.3Z"/>
            <path d="M195.39,177.51c-.02,.05-.18,.05-.48,0-.29-.07-.75-.13-1.29-.35-.54-.23-1.21-.49-1.89-.98-.71-.45-1.43-1.11-2.1-1.94-.63-.85-1.26-1.87-1.64-3.07-.4-1.19-.64-2.52-.65-3.93,.02-1.4,.13-2.93,.9-4.41,.73-1.42,1.87-2.66,3.24-3.58,1.37-.93,2.91-1.52,4.45-1.78,1.53-.26,3.03-.22,4.41,0,2.77,.45,5.06,1.58,6.79,2.69,1.74,1.12,2.98,2.23,3.8,3.02,.81,.8,1.21,1.3,1.14,1.38-.07,.08-.6-.26-1.52-.91-.93-.64-2.24-1.59-3.98-2.54-1.73-.95-3.9-1.88-6.43-2.22-1.26-.16-2.6-.17-3.93,.08-1.33,.24-2.66,.76-3.84,1.56-1.18,.8-2.14,1.84-2.76,3-.61,1.1-.77,2.46-.81,3.71-.03,1.26,.14,2.46,.45,3.54,.28,1.09,.79,2.01,1.29,2.81,.55,.77,1.14,1.42,1.73,1.9,.58,.51,1.16,.83,1.63,1.13,.47,.28,.88,.44,1.13,.6,.26,.15,.39,.25,.38,.3Z"/>
            <path d="M191.42,208.77c-.02,.05-.18,.05-.48,0-.29-.07-.75-.13-1.29-.35-.54-.23-1.21-.49-1.89-.98-.71-.45-1.43-1.11-2.1-1.94-.63-.85-1.26-1.87-1.64-3.07-.4-1.19-.64-2.52-.65-3.93,.02-1.4,.13-2.93,.9-4.41,.73-1.42,1.87-2.66,3.24-3.58,1.37-.93,2.91-1.52,4.45-1.78,1.53-.26,3.03-.22,4.41,0,2.77,.45,5.06,1.58,6.79,2.69,1.74,1.12,2.98,2.23,3.8,3.02,.81,.8,1.21,1.3,1.14,1.38-.07,.08-.6-.26-1.52-.91-.93-.64-2.24-1.59-3.98-2.54-1.73-.95-3.9-1.88-6.43-2.22-1.26-.16-2.6-.17-3.93,.08-1.33,.24-2.66,.76-3.84,1.56-1.18,.8-2.14,1.84-2.76,3-.61,1.1-.77,2.46-.81,3.71-.03,1.26,.14,2.46,.45,3.54,.28,1.09,.79,2.01,1.29,2.81,.55,.77,1.13,1.42,1.73,1.9,.58,.51,1.16,.83,1.63,1.13,.47,.28,.88,.44,1.13,.6,.26,.15,.39,.25,.38,.3Z"/>
            <path d="M187.44,240.04c-.02,.05-.18,.05-.48,0-.29-.07-.75-.13-1.29-.35-.54-.23-1.21-.49-1.89-.98-.71-.45-1.43-1.11-2.1-1.94-.63-.85-1.26-1.87-1.64-3.07-.4-1.19-.64-2.52-.65-3.93,.02-1.4,.13-2.93,.9-4.41,.73-1.42,1.87-2.66,3.24-3.58,1.37-.93,2.91-1.52,4.45-1.78,1.53-.26,3.03-.22,4.41,0,2.77,.45,5.06,1.58,6.79,2.69,1.74,1.12,2.98,2.23,3.8,3.02,.81,.8,1.21,1.3,1.14,1.38-.07,.08-.6-.26-1.52-.91-.93-.64-2.24-1.59-3.98-2.54-1.73-.95-3.9-1.88-6.43-2.22-1.26-.16-2.6-.17-3.93,.08-1.33,.24-2.66,.76-3.84,1.56-1.18,.8-2.14,1.84-2.76,3-.61,1.1-.77,2.46-.81,3.71-.03,1.26,.14,2.46,.45,3.54,.28,1.09,.79,2.01,1.29,2.81,.55,.77,1.13,1.42,1.73,1.9,.58,.51,1.16,.83,1.63,1.13,.47,.28,.88,.44,1.13,.6,.26,.15,.39,.25,.38,.3Z"/>
            <path d="M183.47,271.3c-.02,.05-.18,.05-.48,0-.29-.07-.75-.13-1.29-.35-.54-.23-1.21-.49-1.89-.98-.71-.45-1.43-1.11-2.1-1.94-.63-.85-1.26-1.87-1.64-3.07-.4-1.19-.64-2.52-.65-3.93,.02-1.4,.13-2.93,.9-4.41,.73-1.42,1.87-2.66,3.24-3.58,1.37-.93,2.91-1.52,4.45-1.78,1.53-.26,3.03-.22,4.41,0,2.77,.45,5.06,1.58,6.79,2.69,1.74,1.12,2.98,2.23,3.8,3.02,.81,.8,1.21,1.3,1.14,1.38-.07,.08-.6-.26-1.52-.91-.93-.64-2.24-1.59-3.98-2.54-1.73-.95-3.9-1.88-6.43-2.22-1.26-.16-2.6-.17-3.93,.08-1.33,.24-2.66,.76-3.84,1.56-1.18,.8-2.14,1.84-2.76,3-.61,1.1-.77,2.46-.81,3.71-.03,1.26,.14,2.46,.45,3.54,.28,1.09,.79,2.01,1.29,2.81,.55,.77,1.13,1.42,1.73,1.9,.58,.51,1.16,.83,1.63,1.13,.47,.28,.88,.44,1.13,.6,.26,.15,.39,.25,.38,.3Z"/>
            <path d="M179.49,302.57c-.02,.05-.18,.05-.48,0-.29-.07-.75-.13-1.29-.35-.54-.23-1.21-.49-1.89-.98-.71-.45-1.43-1.11-2.1-1.94-.63-.85-1.26-1.87-1.64-3.07-.4-1.19-.64-2.52-.65-3.93,.02-1.4,.13-2.93,.9-4.41,.73-1.42,1.87-2.66,3.24-3.58,1.37-.93,2.91-1.52,4.45-1.78,1.53-.26,3.03-.22,4.41,0,2.77,.45,5.06,1.58,6.79,2.69,1.74,1.12,2.98,2.23,3.8,3.02,.81,.8,1.21,1.3,1.14,1.38-.07,.08-.6-.26-1.52-.91-.93-.64-2.24-1.59-3.98-2.54-1.73-.95-3.9-1.88-6.43-2.22-1.26-.16-2.6-.17-3.93,.08-1.33,.24-2.66,.76-3.84,1.56-1.18,.8-2.14,1.84-2.76,3-.61,1.1-.77,2.46-.81,3.71-.03,1.26,.14,2.46,.45,3.54,.28,1.09,.79,2.01,1.29,2.81,.55,.77,1.13,1.42,1.73,1.9,.58,.51,1.16,.83,1.63,1.13,.47,.28,.88,.44,1.13,.6,.26,.15,.39,.25,.38,.3Z"/>
            <path d="M175.51,333.83c-.02,.05-.18,.05-.48,0-.29-.07-.75-.13-1.29-.35-.54-.23-1.21-.49-1.89-.98-.71-.45-1.43-1.11-2.1-1.94-.63-.85-1.26-1.87-1.64-3.07-.4-1.19-.64-2.52-.65-3.93,.02-1.4,.13-2.93,.9-4.41,.73-1.42,1.87-2.66,3.24-3.58,1.37-.93,2.91-1.52,4.45-1.78,1.53-.26,3.03-.22,4.41,0,2.77,.45,5.06,1.58,6.79,2.69,1.74,1.12,2.98,2.23,3.8,3.02,.81,.8,1.21,1.3,1.14,1.38-.07,.08-.6-.26-1.52-.91-.93-.64-2.24-1.59-3.98-2.54-1.73-.95-3.9-1.88-6.43-2.22-1.26-.16-2.6-.17-3.93,.08-1.33,.24-2.66,.76-3.84,1.56-1.18,.8-2.14,1.84-2.76,3-.61,1.1-.77,2.46-.81,3.71-.03,1.26,.14,2.46,.45,3.54,.28,1.09,.79,2.01,1.29,2.81,.55,.77,1.13,1.42,1.73,1.9,.58,.51,1.16,.83,1.63,1.13,.47,.28,.88,.44,1.13,.6,.26,.15,.39,.25,.38,.3Z"/>
          </g>
        </g>
        <rect class="cls-9" x="423.61" y="112.82" width="14.53" height="24.33" transform="translate(252.53 536.65) rotate(-82.75)"/>
        <path class="cls-15" d="M400.77,127.11s-.14,0-.4-.03c-.29-.03-.67-.07-1.17-.13-1.05-.13-2.56-.31-4.48-.55-3.92-.5-9.54-1.22-16.48-2.1-13.93-1.83-33.14-4.35-54.35-7.13-5.31-.71-10.49-1.39-15.49-2.06-5-.65-9.83-1.34-14.43-1.9-4.59-.54-9.01-.73-13.08-.14-4.05,.57-7.89,1.44-11.44,1.01-1.76-.2-3.41-.74-4.81-1.49-1.41-.74-2.64-1.59-3.82-2.32-1.17-.74-2.3-1.38-3.41-1.79-1.1-.41-2.19-.57-3.15-.59-1.95-.03-3.41,.65-4.15,1.34-.76,.69-.97,1.22-1.01,1.19,0,0,.06-.12,.19-.35,.06-.12,.15-.26,.28-.41,.12-.16,.27-.33,.47-.51,.74-.73,2.22-1.47,4.22-1.47,.99,0,2.1,.15,3.24,.56,1.14,.41,2.28,1.05,3.47,1.78,1.19,.73,2.43,1.56,3.82,2.28,1.39,.73,2.98,1.23,4.7,1.42,3.47,.39,7.26-.48,11.34-1.07,4.11-.62,8.58-.44,13.19,.09,4.61,.54,9.43,1.22,14.44,1.87,5,.66,10.19,1.35,15.49,2.05,21.2,2.84,40.4,5.41,54.33,7.28,6.93,.95,12.55,1.73,16.46,2.27,1.92,.28,3.42,.49,4.47,.64,.49,.08,.87,.14,1.16,.18,.26,.04,.39,.07,.39,.08Z"/>
        <path class="cls-15" d="M396.54,141.66s-.13,0-.37-.02c-.27-.03-.63-.07-1.09-.11-.99-.11-2.4-.28-4.19-.48-3.67-.45-8.93-1.09-15.41-1.88-13.03-1.64-30.99-3.89-50.83-6.39-19.84-2.55-37.79-4.86-50.82-6.54-6.48-.86-11.73-1.56-15.39-2.04-1.79-.25-3.2-.44-4.18-.58-.46-.07-.82-.12-1.09-.16-.24-.04-.37-.06-.37-.07,0,0,.13,0,.37,.02,.27,.03,.63,.07,1.09,.11,.99,.11,2.4,.28,4.19,.48,3.67,.45,8.93,1.09,15.41,1.88,13.03,1.64,30.99,3.89,50.84,6.39,19.83,2.55,37.78,4.86,50.81,6.54,6.48,.86,11.73,1.56,15.39,2.04,1.79,.25,3.2,.44,4.18,.58,.46,.07,.82,.12,1.09,.16,.24,.04,.37,.06,.37,.07Z"/>
        <path class="cls-15" d="M379.46,225.62s-.12,0-.36-.02c-.26-.03-.6-.06-1.04-.11-.94-.11-2.28-.26-3.99-.46-3.49-.42-8.49-1.03-14.65-1.78-12.39-1.56-29.46-3.7-48.31-6.07-18.85-2.43-35.92-4.62-48.3-6.22-6.15-.82-11.14-1.48-14.63-1.94-1.7-.24-3.03-.42-3.97-.55-.43-.07-.77-.12-1.03-.16-.23-.04-.35-.06-.35-.07,0,0,.12,0,.36,.02,.26,.03,.6,.06,1.04,.11,.94,.11,2.28,.26,3.99,.46,3.49,.42,8.49,1.03,14.65,1.78,12.39,1.56,29.46,3.7,48.32,6.07,18.85,2.43,35.91,4.62,48.29,6.22,6.15,.82,11.14,1.48,14.63,1.94,1.7,.24,3.03,.42,3.97,.55,.43,.07,.77,.12,1.03,.16,.23,.04,.35,.06,.35,.07Z"/>
        <path class="cls-15" d="M375.85,254.02s-.12,0-.36-.02c-.26-.03-.6-.06-1.04-.11-.94-.11-2.28-.26-3.99-.46-3.49-.42-8.49-1.03-14.65-1.78-12.39-1.56-29.46-3.7-48.31-6.07-18.85-2.43-35.92-4.62-48.3-6.22-6.15-.82-11.14-1.48-14.63-1.94-1.7-.24-3.03-.42-3.97-.55-.43-.07-.77-.12-1.03-.16-.23-.04-.35-.06-.35-.07,0,0,.12,0,.36,.02,.26,.03,.6,.06,1.04,.11,.94,.11,2.28,.26,3.99,.46,3.49,.42,8.49,1.03,14.65,1.78,12.39,1.56,29.46,3.7,48.32,6.07,18.85,2.43,35.91,4.62,48.3,6.22,6.15,.82,11.14,1.48,14.63,1.94,1.7,.24,3.03,.42,3.97,.55,.43,.07,.77,.12,1.03,.16,.23,.04,.35,.06,.35,.07Z"/>
        <path class="cls-15" d="M374.85,239.17s-.12,0-.35-.02c-.26-.03-.59-.06-1.02-.1-.92-.11-2.23-.26-3.9-.45-3.42-.41-8.31-1.01-14.35-1.74-12.14-1.52-28.85-3.62-47.31-5.94-18.46-2.38-35.17-4.53-47.3-6.09-6.02-.8-10.91-1.45-14.33-1.91-1.66-.23-2.97-.42-3.89-.54-.42-.06-.76-.12-1.01-.15-.23-.04-.34-.06-.34-.07,0,0,.12,0,.35,.02,.26,.03,.59,.06,1.02,.1,.92,.11,2.23,.26,3.9,.45,3.42,.41,8.31,1.01,14.35,1.74,12.14,1.52,28.85,3.62,47.32,5.94,18.45,2.38,35.16,4.53,47.29,6.09,6.02,.8,10.91,1.45,14.33,1.91,1.67,.23,2.97,.42,3.89,.54,.42,.06,.76,.12,1.01,.15,.23,.04,.34,.06,.34,.07Z"/>
        <path class="cls-15" d="M298.96,257.11s-.22,0-.63-.03c-.47-.05-1.06-.11-1.79-.18-1.62-.19-3.85-.44-6.59-.75-5.61-.69-13.26-1.64-21.7-2.68-8.44-1.1-16.08-2.1-21.69-2.83-2.72-.38-4.95-.69-6.56-.92-.73-.11-1.32-.2-1.78-.28-.41-.07-.62-.11-.62-.13,0-.02,.22,0,.63,.03,.47,.05,1.06,.11,1.79,.18,1.62,.19,3.85,.44,6.59,.75,5.61,.69,13.26,1.64,21.71,2.68,8.44,1.1,16.07,2.1,21.68,2.83,2.72,.38,4.95,.69,6.56,.92,.73,.11,1.32,.2,1.78,.28,.41,.07,.62,.11,.62,.13Z"/>
      </g>
      <path class="cls-15" d="M271.18,138.43c-.02,.14-5.16-.39-11.49-1.2-6.33-.81-11.44-1.57-11.43-1.72,.02-.14,5.16,.39,11.49,1.2,6.33,.8,11.44,1.57,11.43,1.72Z"/>
      <path class="cls-15" d="M381.44,210.08s-.12,0-.34-.02c-.25-.02-.58-.06-1-.1-.88-.1-2.18-.24-3.85-.38-1.67-.15-3.73-.31-6.11-.44-2.38-.15-5.1-.28-8.1-.41-6.01-.27-13.17-.45-21.12-.92-3.97-.24-8.14-.54-12.44-1.1-4.3-.58-8.72-1.29-13.26-1.96-18.14-2.77-34.56-5.29-46.48-7.11-5.92-.93-10.72-1.69-14.07-2.22-1.63-.27-2.92-.48-3.82-.63-.41-.07-.74-.13-.99-.18-.22-.04-.34-.07-.34-.08,0,0,.12,0,.34,.03,.25,.03,.58,.07,1,.13,.91,.13,2.2,.31,3.84,.53,3.36,.49,8.17,1.19,14.1,2.06,11.93,1.78,28.35,4.24,46.5,6.96,4.54,.67,8.97,1.38,13.25,1.97,4.28,.56,8.44,.87,12.41,1.13,7.93,.49,15.09,.71,21.1,1.03,3,.16,5.72,.31,8.11,.49,2.38,.17,4.44,.35,6.11,.53,1.67,.17,2.97,.34,3.85,.47,.42,.06,.75,.11,1,.15,.22,.04,.34,.06,.34,.07Z"/>
    </g>
  </g>
  <g id="Character">
    <g>
      <g>
        <path class="cls-8" d="M126.02,295.44s122.37-121,136.29-140.17l-8.38-7.71L115.94,284.81l10.08,10.64Z"/>
        <path class="cls-9" d="M88.71,320.97c5.51,.1,20.38-2.02,41.34-23.64l18.49-16.68-14.15-13.61s28.2-26.12,26.85-27.55c-1.35-1.43-16.33,12.48-28.18,22.73-10.77,9.32-46.72,42.21-47.56,55.26-.12,1.86,1.33,3.46,3.2,3.49Z"/>
        <path class="cls-7" d="M161.25,239.48c-1.35-1.43-16.33,12.48-28.18,22.73-.93,.81-2.07,1.8-3.34,2.94l14.05,13.46-18.46,16.72c-18.98,19.66-32.98,23.25-39.52,23.68,.5,1.12,1.6,1.93,2.91,1.96,5.51,.1,20.38-2.02,41.34-23.64l18.49-16.68-14.15-13.61s28.2-26.12,26.85-27.55Z"/>
        <polygon class="cls-15" points="150.51 263.64 246.95 166.7 242.87 162.95 146.58 259.5 150.51 263.64"/>
        <path class="cls-6" d="M262.22,155.4s9.15-14.41,6.59-15.17c-2.55-.76-14.88,7.34-14.88,7.34l2.36,2.43-13.95,13.48,4.62,3.22,12.74-13.46,2.53,2.16Z"/>
      </g>
      <g>
        <g>
          <g>
            <path class="cls-11" d="M168.22,220.98h0c5.09,.39,9.48-3.53,9.68-8.63,.19-4.9,.35-9.85,.35-9.85,0,0,7.42-.7,7.96-8.04,.54-7.34,.29-24.3,.29-24.3h0c-8.28-4.17-18.18-3.54-25.86,1.66l-1.14,.77,.42,39.5c.05,4.66,3.65,8.52,8.31,8.87Z"/>
            <path class="cls-9" d="M167.88,160.64c-4.47-.13-8.52,2.78-10.6,6.38-2.07,3.59-2.52,7.76-2.72,11.81-.38,7.95,.09,15.91,.56,23.86,.03,.59,.09,1.23,.51,1.68,.46,.5,1.23,.63,1.94,.73,13.53,1.88,27.37,1.9,40.91,.06,.89-1.62-.36-3.54-1.81-4.78-1.45-1.24-3.24-2.37-3.76-4.12-.82-2.75,1.91-5.69,.84-8.37-.8-2.01-3.45-3-4.38-4.97-1.56-3.3,2.47-7.29,.68-10.49-.93-1.67-3.11-2.41-4.49-3.8-1.22-1.23-1.74-2.9-2.8-4.25-1.65-2.11-4.5-3.25-7.33-3.58-2.83-.33-4.74-.54-7.57-.16"/>
            <path class="cls-9" d="M157.41,169.04c-1.9,.92-2.72,3.19-2.99,5.28s-.2,4.29-1.07,6.21c-.93,2.05-2.86,3.62-3.38,5.81-.66,2.85,1.22,6.22-.48,8.6-1.09,1.54-3.24,1.92-4.59,3.24-1.86,1.83-1.7,4.82-1.4,7.42,8.17-.07,16.35-.15,24.52-.22"/>
          </g>
          <path class="cls-9" d="M162.82,165.14c-.44-2.38-2.11-4.49-4.31-5.47s-4.89-.8-6.95,.47c-3.92,2.42-5.3,8.2-9.71,9.53-1.15,.35-2.56,.45-3.16,1.49-.63,1.08,.15,2.54,1.28,3.08,1.13,.54,2.44,.42,3.69,.3-1.44-.32-2.85,1.27-2.56,2.72,.29,1.45,1.92,2.39,3.37,2.15,1.45-.24,2.63-1.44,3.1-2.84-.53,1.54-1.06,3.08-1.59,4.62,3.05,.54,5.65-2.21,7.19-4.89,1.55-2.68,2.95-5.82,5.8-7.01,1.27-.53,2.74-.63,3.83-1.47s1.31-2.94,0-3.35"/>
          <path class="cls-15" d="M164.09,165.23s.57,.22,1.07,1.03c.5,.77,.88,2.17,.34,3.56-.55,1.39-1.78,2.16-2.67,2.39-.91,.25-1.5,.08-1.48,.03,0-.09,.57-.06,1.37-.38,.79-.3,1.82-1.03,2.3-2.23,.46-1.2,.2-2.45-.18-3.2-.38-.77-.81-1.14-.75-1.2Z"/>
        </g>
        <polygon class="cls-11" points="190.68 398.26 203.25 456.23 219.83 455.85 212.48 393.13 190.68 398.26"/>
        <path class="cls-11" d="M131.55,236.72s-.28,.4-.74,1.13c-2.66,4.23-10.16,19.4-3.84,29.55l15.86-13.94,2.68-6.26"/>
        <polygon class="cls-11" points="140.69 351.44 135.35 450.42 151.67 454.37 163.91 353.53 140.69 351.44"/>
        <g>
          <path class="cls-6" d="M212.78,226.97l-23.01,5.55-1.33,17.75,3.2,10.12c-.04,.37,5.17,17.39,5.17,17.39l1.61,5.63-52.58,.55c-.18-6.14,3.91-12.2,3.91-12.2,2.99-5.07,2.22-12.73,.83-18.55-.44-1.84-1.02-4.87-1.26-6.75l-.04-.32-3.01,5.29-18.26-13.18c5.93-11.43,14.63-23,15.67-23.86,6.5-5.34,13.55-4.97,13.55-4.97l22.7,.19s17.87-2.24,28.29-4l4.54,21.36Z"/>
          <path class="cls-15" d="M208.69,208.16c.03,.05-.97,.44-2.38,1.69-.71,.62-1.5,1.46-2.41,2.44-.91,.99-1.99,2.1-3.36,3.12-2.71,2.05-6.57,3.77-11.1,4.13-2.25,.16-4.66,0-7.03-.66-2.38-.64-4.68-1.7-7.14-2.4-1.23-.35-2.47-.58-3.7-.62-1.23-.02-2.44,.14-3.61,.42-2.33,.59-4.44,1.61-6.45,2.58-2.01,.97-3.93,1.92-5.83,2.56-1.9,.66-3.77,.97-5.48,.98-3.43,.02-6.12-.93-7.8-1.79-.85-.43-1.47-.83-1.88-1.12-.4-.3-.61-.46-.6-.47,.03-.05,.86,.61,2.57,1.41,1.69,.79,4.35,1.67,7.7,1.6,1.67-.03,3.49-.36,5.35-1.02,1.86-.64,3.76-1.6,5.76-2.58,2.01-.98,4.14-2.03,6.54-2.64,1.2-.29,2.46-.47,3.74-.45,1.28,.04,2.57,.28,3.82,.63,2.51,.71,4.81,1.77,7.13,2.41,2.31,.65,4.66,.82,6.86,.68,4.42-.33,8.22-1.97,10.91-3.95,1.37-.98,2.44-2.05,3.37-3.02,.93-.97,1.75-1.79,2.49-2.4,.73-.61,1.36-1,1.81-1.23,.22-.12,.4-.19,.51-.24,.12-.05,.18-.07,.18-.06Z"/>
          <path class="cls-15" d="M188.62,238.01s-.12,.19-.46,.44c-.33,.26-.89,.57-1.68,.73-.79,.16-1.79,.14-2.89-.15-1.11-.27-2.26-.9-3.44-1.67-1.18-.76-2.41-1.7-3.89-2.37-1.48-.65-3.21-1-5.04-.92-3.69,.11-7.52,1.67-11.44,3.36-1.98,.82-3.95,1.59-5.94,2.07-1.98,.49-3.99,.68-5.87,.42-1.88-.24-3.58-.96-4.99-1.86-1.42-.89-2.58-1.94-3.55-2.98-1.92-2.09-3.1-4.06-3.93-5.39-.41-.67-.71-1.2-.91-1.56-.2-.36-.3-.56-.28-.57,.02,0,.14,.17,.37,.51,.26,.39,.59,.89,1,1.51,.88,1.3,2.1,3.22,4.02,5.25,.96,1,2.12,2.01,3.51,2.87,1.38,.85,3.02,1.53,4.83,1.75,1.81,.24,3.75,.05,5.68-.44,1.94-.47,3.89-1.23,5.86-2.05,3.91-1.69,7.82-3.27,11.62-3.36,1.89-.07,3.7,.3,5.23,1.01,1.53,.72,2.75,1.68,3.91,2.46,1.15,.79,2.25,1.41,3.31,1.7,1.05,.31,2.02,.35,2.78,.23,1.55-.26,2.13-1.04,2.17-.97Z"/>
          <path class="cls-15" d="M189.39,255s-.08,.12-.26,.32c-.18,.21-.48,.47-.9,.78-.84,.61-2.25,1.26-4.11,1.45-1.85,.19-4.1-.05-6.41-.87-2.32-.79-4.68-2.05-7.25-3.09-2.56-1.07-5.17-1.6-7.56-1.47-2.38,.12-4.49,.73-6.13,1.48-3.31,1.53-4.79,3.36-4.87,3.25-.01-.01,.08-.12,.26-.33,.18-.2,.45-.5,.84-.84,.76-.69,1.96-1.61,3.62-2.42,1.66-.81,3.81-1.47,6.26-1.62,2.46-.17,5.18,.38,7.78,1.46,2.6,1.06,4.95,2.32,7.21,3.12,2.24,.82,4.42,1.1,6.22,.95,1.8-.14,3.18-.71,4.03-1.25,.85-.55,1.23-.98,1.27-.94Z"/>
          <path class="cls-15" d="M195.02,271.34s-.53-.37-1.56-.89c-1.03-.52-2.62-1.08-4.68-1.24-2.05-.17-4.53,.06-7.16,.78-2.65,.7-5.45,1.83-8.5,2.79-3.04,.99-6.11,1.47-8.89,1.4-2.78-.05-5.26-.55-7.25-1.19-2-.63-3.53-1.39-4.54-1.97-.51-.28-.89-.53-1.15-.71-.25-.17-.38-.27-.37-.28,.03-.04,.58,.3,1.61,.81,1.04,.52,2.57,1.21,4.56,1.79,1.98,.59,4.42,1.04,7.15,1.06,2.73,.04,5.72-.44,8.72-1.42,3.01-.95,5.84-2.07,8.53-2.76,2.68-.7,5.22-.91,7.32-.68,2.1,.21,3.73,.85,4.74,1.43,.51,.3,.89,.55,1.12,.76,.24,.19,.36,.3,.35,.32Z"/>
        </g>
        <g>
          <polygon class="cls-15" points="145.94 281.97 135.86 397.56 160.77 397.7 173.07 305.07 189.14 398.54 214.06 393.95 198.78 282.94 145.94 281.97"/>
          <path class="cls-6" d="M190.91,302.04c.02,.14-8.52,1.27-19.07,2.52-10.55,1.25-19.11,2.15-19.13,2.01-.02-.14,8.52-1.27,19.07-2.52,10.55-1.25,19.11-2.15,19.13-2.01Z"/>
        </g>
        <g>
          <g>
            <path class="cls-9" d="M222.09,457.54l-.07-1.85-18.78,.54,.16,6.11,1.16,.04c5.17,.13,26.28,.31,29.69-.75,3.81-1.19-12.17-4.09-12.17-4.09Z"/>
            <g class="cls-4">
              <path class="cls-1" d="M210.18,462.03c-.31-1.44-1.22-2.77-2.5-3.64-1.28-.87-2.83-1.31-4.41-1.15l.15,4.86,6.76-.07Z"/>
            </g>
          </g>
          <g class="cls-4">
            <path class="cls-1" d="M229.91,459.22s5.61,1.34,4.94,2.21c-.67,.87-22.01,1.43-31.45,.91l.02-.39,24.9-.46s.5-2.21,1.58-2.28Z"/>
          </g>
          <path class="cls-15" d="M203.13,461.95s.11,.02,.32,.02c.28,0,.58,.02,.92,.03,.92,.01,2.06,.03,3.4,.05,2.87,.02,6.84,0,11.22-.11,4.38-.11,8.35-.3,11.21-.46,1.34-.09,2.47-.16,3.39-.22,.34-.03,.64-.05,.92-.07,.21-.02,.32-.03,.32-.04,0,0-.11,0-.32,0-.28,.01-.58,.02-.92,.04-.92,.04-2.06,.09-3.4,.15-2.87,.13-6.83,.29-11.21,.4-4.38,.11-8.34,.16-11.22,.17-1.34,0-2.48,.01-3.4,.02-.34,0-.65,0-.92,.01-.21,0-.32,.01-.32,.02Z"/>
          <path class="cls-15" d="M228.33,461.77c.07,0,.1-.75,.59-1.52,.47-.78,1.16-1.19,1.12-1.24-.01-.05-.81,.3-1.32,1.13-.52,.83-.45,1.64-.39,1.63Z"/>
          <path class="cls-15" d="M222.74,459.31c.05,.03,.31-.28,.57-.68,.26-.41,.43-.76,.37-.79-.05-.03-.31,.28-.57,.68-.26,.41-.43,.76-.37,.79Z"/>
          <path class="cls-15" d="M221.2,458.61s.33-.15,.65-.43c.31-.28,.53-.54,.49-.58-.04-.04-.33,.15-.65,.43-.31,.28-.53,.54-.49,.58Z"/>
          <path class="cls-15" d="M220.19,456.99c0,.06,.44,.1,.98,.09,.54,0,.98-.06,.97-.12,0-.06-.44-.1-.98-.09-.54,0-.98,.06-.97,.12Z"/>
          <path class="cls-15" d="M219.83,455.85c-.02,.05,.46,.24,1.1,.27,.63,.03,1.13-.11,1.12-.17-.01-.06-.51-.01-1.11-.04-.6-.02-1.09-.11-1.11-.06Z"/>
          <path class="cls-15" d="M223.32,457.78s.46,.06,1.2-.04c.37-.05,.8-.14,1.27-.3,.23-.08,.47-.15,.72-.3,.12-.08,.25-.18,.29-.35,.04-.17-.06-.35-.2-.44-1.16-.52-2.3,.11-2.71,.67-.23,.29-.33,.57-.37,.76-.04,.19-.04,.3-.02,.3,.04,.01,.07-.44,.52-.97,.22-.26,.56-.51,1.01-.65,.42-.13,1.02-.18,1.43,.05,.19,.13,.13,.34-.08,.46-.19,.12-.45,.2-.67,.29-.45,.16-.87,.26-1.23,.33-.72,.14-1.17,.15-1.17,.18Z"/>
          <path class="cls-15" d="M223.64,457.83s.19-.28,.11-.78c-.04-.25-.14-.54-.35-.81-.22-.24-.5-.58-1.02-.54-.28,.04-.4,.34-.35,.53,.03,.19,.13,.36,.22,.49,.19,.27,.4,.49,.59,.66,.39,.33,.69,.46,.7,.43,.02-.03-.25-.19-.59-.54-.17-.17-.36-.39-.52-.66-.17-.23-.3-.65,0-.71,.3-.03,.62,.24,.81,.45,.2,.24,.31,.49,.36,.72,.11,.45,0,.75,.04,.75Z"/>
          <path class="cls-15" d="M203.37,457.19s.53-.06,1.38,0c.84,.06,2.01,.35,3.05,1.08,1.03,.72,1.66,1.69,1.96,2.42,.31,.74,.35,1.24,.39,1.23,.01,0,.02-.13-.01-.35-.03-.22-.09-.55-.23-.93-.27-.76-.89-1.79-1.97-2.54-1.08-.75-2.31-1.03-3.17-1.06-.44-.02-.79,.01-1.03,.05-.24,.04-.37,.08-.37,.09Z"/>
          <path class="cls-15" d="M212.48,460.27c0,.05,1.22,.21,2.74,.18,1.52-.02,2.74-.22,2.73-.28,0-.06-1.23,.04-2.73,.06-1.5,.03-2.73-.03-2.73,.03Z"/>
          <path class="cls-15" d="M208.82,460.36s.11,.24,.24,.5c.14,.26,.21,.49,.27,.48,.06,0,.09-.28-.07-.57-.15-.3-.4-.45-.44-.4Z"/>
          <path class="cls-15" d="M207.39,458.8s.08,.22,.28,.4c.2,.18,.4,.29,.44,.24,.04-.04-.08-.22-.28-.4-.2-.18-.4-.29-.44-.24Z"/>
          <path class="cls-15" d="M205.39,458.12c.01,.06,.26,.05,.54,.13,.28,.08,.48,.21,.53,.17,.05-.03-.12-.28-.46-.37-.34-.1-.63,.02-.61,.07Z"/>
          <path class="cls-15" d="M203.98,457.82c-.02,.05,.09,.14,.25,.19,.16,.05,.3,.05,.32,0,.02-.05-.09-.14-.25-.19-.16-.05-.3-.05-.32,0Z"/>
        </g>
        <g>
          <polygon class="cls-9" points="134.87 449.58 132.09 461.8 150.87 461.8 151.67 453.84 134.87 449.58"/>
          <path class="cls-15" d="M151.25,460.03c0,.07-1.05,.14-2.74,.16-1.69,.02-4.03-.03-6.6-.12-2.48-.11-4.73-.2-6.59-.28-1.69-.08-2.73-.15-2.73-.22,0-.07,1.05-.14,2.74-.15,1.69-.01,4.03,.03,6.6,.13,2.48,.1,4.73,.2,6.59,.27,1.69,.08,2.73,.14,2.73,.21Z"/>
          <path class="cls-15" d="M143.3,451.96c.14,0,.14,1.78,0,3.96-.15,2.18-.38,3.93-.53,3.92-.14,0-.14-1.78,0-3.96,.15-2.18,.38-3.93,.53-3.92Z"/>
          <polyline class="cls-2" points="132.09 461.8 150.87 461.8 151.05 460.03 132.43 459.56 132.09 461.59"/>
        </g>
        <path class="cls-11" d="M252.29,166.98l-6.85,2.47c-.1-2.74-1.96-5.6-1.96-4.23s-.65,8.45-.65,8.45l-14.29,24.85c-1.99,3.96-5.57,6.27-8.14,6.68l-11.72,2.51,3.29,15.49,16.33-4.03c4.24-1.05,7.73-4.04,9.41-8.07l13.58-32.56s1.6-3.7,2.29-6.45c.69-2.75-1.3-5.12-1.3-5.12Z"/>
      </g>
    </g>
  </g>
</svg>